<svg xmlns="http://www.w3.org/2000/svg" xmlns:xlink="http://www.w3.org/1999/xlink" width="500" zoomAndPan="magnify" viewBox="0 0 375 374.999991" height="500" preserveAspectRatio="xMidYMid meet" version="1.2"><defs><clipPath id="d142a8bab5"><path d="M 111 8.273438 L 375 8.273438 L 375 273.773438 L 111 273.773438 Z M 111 8.273438 "/></clipPath></defs><g id="436e961a67"><path style=" stroke:none;fill-rule:nonzero;fill:#f6be31;fill-opacity:1;" d="M 0.0546875 270.445312 L 29.539062 251.675781 C 29.898438 251.4375 63.636719 229.96875 91.292969 213.050781 C 114.273438 222.699219 140.441406 227.78125 167.269531 227.78125 C 250.21875 227.78125 317.695312 179.226562 317.695312 119.578125 C 317.695312 59.90625 250.21875 11.371094 167.269531 11.371094 C 84.339844 11.371094 16.867188 59.90625 16.867188 119.578125 C 16.867188 144.425781 28.558594 168.28125 49.925781 187.410156 L 0.0546875 270.445312 "/><g clip-rule="nonzero" clip-path="url(#d142a8bab5)"><path style=" stroke:none;fill-rule:nonzero;fill:#38b6ff;fill-opacity:1;" d="M 111.707031 138.886719 C 111.707031 211.027344 170.179688 269.5 242.320312 269.5 C 268.097656 269.5 292.128906 262.023438 312.378906 249.140625 L 355.402344 265.929688 L 374.945312 273.5625 L 371.441406 264.59375 L 350.796875 211.671875 C 364.78125 190.875 372.945312 165.824219 372.945312 138.886719 C 372.945312 66.742188 314.460938 8.257812 242.320312 8.257812 C 170.179688 8.257812 111.707031 66.742188 111.707031 138.886719 "/></g><path style=" stroke:none;fill-rule:nonzero;fill:#ffffff;fill-opacity:1;" d="M 206.058594 140.910156 C 206.058594 145.289062 202.507812 148.839844 198.125 148.839844 C 193.746094 148.839844 190.195312 145.289062 190.195312 140.910156 C 190.195312 136.53125 193.746094 132.980469 198.125 132.980469 C 202.507812 132.980469 206.058594 136.53125 206.058594 140.910156 "/><path style=" stroke:none;fill-rule:nonzero;fill:#ffffff;fill-opacity:1;" d="M 251.257812 140.910156 C 251.257812 145.289062 247.707031 148.839844 243.328125 148.839844 C 238.945312 148.839844 235.398438 145.289062 235.398438 140.910156 C 235.398438 136.53125 238.945312 132.980469 243.328125 132.980469 C 247.707031 132.980469 251.257812 136.53125 251.257812 140.910156 "/><path style=" stroke:none;fill-rule:nonzero;fill:#ffffff;fill-opacity:1;" d="M 296.460938 140.910156 C 296.460938 145.289062 292.910156 148.839844 288.53125 148.839844 C 284.148438 148.839844 280.597656 145.289062 280.597656 140.910156 C 280.597656 136.53125 284.148438 132.980469 288.53125 132.980469 C 292.910156 132.980469 296.460938 136.53125 296.460938 140.910156 "/><g style="fill:#38b6ff;fill-opacity:1;"><g transform="translate(3.112962, 366.749976)"><path style="stroke:none" d="M 18.265625 -21.796875 L 18.265625 0 L 5.515625 0 L 5.515625 -61.859375 L 29.65625 -61.859375 C 34.300781 -61.859375 38.382812 -61.003906 41.90625 -59.296875 C 45.4375 -57.597656 48.148438 -55.179688 50.046875 -52.046875 C 51.941406 -48.921875 52.890625 -45.363281 52.890625 -41.375 C 52.890625 -35.3125 50.8125 -30.53125 46.65625 -27.03125 C 42.507812 -23.539062 36.769531 -21.796875 29.4375 -21.796875 Z M 18.265625 -32.109375 L 29.65625 -32.109375 C 33.019531 -32.109375 35.585938 -32.898438 37.359375 -34.484375 C 39.128906 -36.078125 40.015625 -38.347656 40.015625 -41.296875 C 40.015625 -44.328125 39.125 -46.773438 37.34375 -48.640625 C 35.5625 -50.503906 33.097656 -51.46875 29.953125 -51.53125 L 18.265625 -51.53125 Z M 18.265625 -32.109375 "/></g></g><g style="fill:#38b6ff;fill-opacity:1;"><g transform="translate(56.619638, 366.749976)"><path style="stroke:none" d="M 32.25 -4.671875 C 29.21875 -0.992188 25.023438 0.84375 19.671875 0.84375 C 14.742188 0.84375 10.984375 -0.566406 8.390625 -3.390625 C 5.796875 -6.222656 4.472656 -10.375 4.421875 -15.84375 L 4.421875 -45.96875 L 16.6875 -45.96875 L 16.6875 -16.265625 C 16.6875 -11.484375 18.867188 -9.09375 23.234375 -9.09375 C 27.398438 -9.09375 30.257812 -10.535156 31.8125 -13.421875 L 31.8125 -45.96875 L 44.140625 -45.96875 L 44.140625 0 L 32.578125 0 Z M 32.25 -4.671875 "/></g></g><g style="fill:#38b6ff;fill-opacity:1;"><g transform="translate(102.692232, 366.749976)"><path style="stroke:none" d="M 17.671875 0 L 5.359375 0 L 5.359375 -65.25 L 17.671875 -65.25 Z M 17.671875 0 "/></g></g><g style="fill:#38b6ff;fill-opacity:1;"><g transform="translate(123.149105, 366.749976)"><path style="stroke:none" d="M 29.609375 -12.703125 C 29.609375 -14.203125 28.863281 -15.382812 27.375 -16.25 C 25.894531 -17.113281 23.507812 -17.882812 20.21875 -18.5625 C 9.289062 -20.851562 3.828125 -25.5 3.828125 -32.5 C 3.828125 -36.570312 5.515625 -39.972656 8.890625 -42.703125 C 12.273438 -45.441406 16.703125 -46.8125 22.171875 -46.8125 C 28.003906 -46.8125 32.671875 -45.4375 36.171875 -42.6875 C 39.671875 -39.945312 41.421875 -36.378906 41.421875 -31.984375 L 29.140625 -31.984375 C 29.140625 -33.742188 28.570312 -35.195312 27.4375 -36.34375 C 26.3125 -37.488281 24.539062 -38.0625 22.125 -38.0625 C 20.0625 -38.0625 18.460938 -37.59375 17.328125 -36.65625 C 16.203125 -35.726562 15.640625 -34.539062 15.640625 -33.09375 C 15.640625 -31.726562 16.28125 -30.628906 17.5625 -29.796875 C 18.851562 -28.960938 21.023438 -28.238281 24.078125 -27.625 C 27.140625 -27.019531 29.71875 -26.335938 31.8125 -25.578125 C 38.300781 -23.191406 41.546875 -19.070312 41.546875 -13.21875 C 41.546875 -9.019531 39.742188 -5.625 36.140625 -3.03125 C 32.546875 -0.445312 27.90625 0.84375 22.21875 0.84375 C 18.363281 0.84375 14.941406 0.160156 11.953125 -1.203125 C 8.972656 -2.578125 6.628906 -4.460938 4.921875 -6.859375 C 3.222656 -9.253906 2.375 -11.835938 2.375 -14.609375 L 14.015625 -14.609375 C 14.128906 -12.429688 14.9375 -10.757812 16.4375 -9.59375 C 17.9375 -8.4375 19.945312 -7.859375 22.46875 -7.859375 C 24.820312 -7.859375 26.597656 -8.300781 27.796875 -9.1875 C 29.003906 -10.082031 29.609375 -11.253906 29.609375 -12.703125 Z M 29.609375 -12.703125 "/></g></g><g style="fill:#38b6ff;fill-opacity:1;"><g transform="translate(165.271017, 366.749976)"><path style="stroke:none" d="M 25.875 0.84375 C 19.132812 0.84375 13.644531 -1.222656 9.40625 -5.359375 C 5.175781 -9.492188 3.0625 -15 3.0625 -21.875 L 3.0625 -23.0625 C 3.0625 -27.675781 3.953125 -31.800781 5.734375 -35.4375 C 7.515625 -39.082031 10.039062 -41.890625 13.3125 -43.859375 C 16.582031 -45.828125 20.316406 -46.8125 24.515625 -46.8125 C 30.796875 -46.8125 35.742188 -44.828125 39.359375 -40.859375 C 42.972656 -36.898438 44.78125 -31.28125 44.78125 -24 L 44.78125 -18.984375 L 15.5 -18.984375 C 15.894531 -15.984375 17.09375 -13.578125 19.09375 -11.765625 C 21.09375 -9.953125 23.617188 -9.046875 26.671875 -9.046875 C 31.398438 -9.046875 35.097656 -10.757812 37.765625 -14.1875 L 43.796875 -7.4375 C 41.953125 -4.832031 39.457031 -2.800781 36.3125 -1.34375 C 33.175781 0.113281 29.695312 0.84375 25.875 0.84375 Z M 24.46875 -36.875 C 22.03125 -36.875 20.050781 -36.050781 18.53125 -34.40625 C 17.019531 -32.769531 16.054688 -30.421875 15.640625 -27.359375 L 32.703125 -27.359375 L 32.703125 -28.328125 C 32.648438 -31.046875 31.914062 -33.148438 30.5 -34.640625 C 29.082031 -36.128906 27.070312 -36.875 24.46875 -36.875 Z M 24.46875 -36.875 "/></g></g><g style="fill:#f6be31;fill-opacity:1;"><g transform="translate(209.691077, 366.749976)"><path style="stroke:none" d="M 52.078125 -51.53125 L 33.140625 -51.53125 L 33.140625 0 L 20.390625 0 L 20.390625 -51.53125 L 1.703125 -51.53125 L 1.703125 -61.859375 L 52.078125 -61.859375 Z M 52.078125 -51.53125 "/></g></g><g style="fill:#f6be31;fill-opacity:1;"><g transform="translate(260.903808, 366.749976)"><path style="stroke:none" d="M 31.34375 0 C 30.78125 -1.101562 30.375 -2.476562 30.125 -4.125 C 27.144531 -0.8125 23.273438 0.84375 18.515625 0.84375 C 14.015625 0.84375 10.285156 -0.457031 7.328125 -3.0625 C 4.367188 -5.664062 2.890625 -8.953125 2.890625 -12.921875 C 2.890625 -17.785156 4.691406 -21.519531 8.296875 -24.125 C 11.910156 -26.726562 17.128906 -28.046875 23.953125 -28.078125 L 29.609375 -28.078125 L 29.609375 -30.71875 C 29.609375 -32.84375 29.0625 -34.539062 27.96875 -35.8125 C 26.882812 -37.082031 25.164062 -37.71875 22.8125 -37.71875 C 20.75 -37.71875 19.128906 -37.222656 17.953125 -36.234375 C 16.773438 -35.242188 16.1875 -33.882812 16.1875 -32.15625 L 3.90625 -32.15625 C 3.90625 -34.820312 4.726562 -37.285156 6.375 -39.546875 C 8.019531 -41.816406 10.34375 -43.59375 13.34375 -44.875 C 16.34375 -46.164062 19.710938 -46.8125 23.453125 -46.8125 C 29.117188 -46.8125 33.613281 -45.390625 36.9375 -42.546875 C 40.257812 -39.703125 41.921875 -35.703125 41.921875 -30.546875 L 41.921875 -10.625 C 41.953125 -6.257812 42.5625 -2.957031 43.75 -0.71875 L 43.75 0 Z M 21.203125 -8.53125 C 23.015625 -8.53125 24.679688 -8.929688 26.203125 -9.734375 C 27.734375 -10.546875 28.867188 -11.632812 29.609375 -13 L 29.609375 -20.90625 L 25.015625 -20.90625 C 18.867188 -20.90625 15.597656 -18.78125 15.203125 -14.53125 L 15.171875 -13.8125 C 15.171875 -12.28125 15.707031 -11.015625 16.78125 -10.015625 C 17.851562 -9.023438 19.328125 -8.53125 21.203125 -8.53125 Z M 21.203125 -8.53125 "/></g></g><g style="fill:#f6be31;fill-opacity:1;"><g transform="translate(304.93734, 366.749976)"><path style="stroke:none" d="M 17.671875 0 L 5.359375 0 L 5.359375 -65.25 L 17.671875 -65.25 Z M 17.671875 0 "/></g></g><g style="fill:#f6be31;fill-opacity:1;"><g transform="translate(325.394214, 366.749976)"><path style="stroke:none" d="M 21.40625 -18.4375 L 17 -14.015625 L 17 0 L 4.71875 0 L 4.71875 -65.25 L 17 -65.25 L 17 -29.09375 L 19.375 -32.15625 L 31.140625 -45.96875 L 45.875 -45.96875 L 29.265625 -26.8125 L 47.328125 0 L 33.21875 0 Z M 21.40625 -18.4375 "/></g></g></g></svg>