<svg xmlns="http://www.w3.org/2000/svg" xmlns:xlink="http://www.w3.org/1999/xlink" width="50" zoomAndPan="magnify" viewBox="0 0 37.5 37.499999" height="50" preserveAspectRatio="xMidYMid meet" version="1.2"><defs><clipPath id="5eb2eedb3d"><path d="M 0 1 L 32 1 L 32 26.722656 L 0 26.722656 Z M 0 1 "/></clipPath><clipPath id="14b0ca0a6d"><path d="M 10 0.816406 L 37 0.816406 L 37 26.722656 L 10 26.722656 Z M 10 0.816406 "/></clipPath></defs><g id="3539329ec8"><g clip-rule="nonzero" clip-path="url(#5eb2eedb3d)"><path style=" stroke:none;fill-rule:nonzero;fill:#f6be31;fill-opacity:1;" d="M 0.00390625 26.414062 L 2.882812 24.582031 C 2.917969 24.558594 6.214844 22.460938 8.914062 20.808594 C 11.15625 21.753906 13.710938 22.25 16.332031 22.25 C 24.429688 22.25 31.019531 17.507812 31.019531 11.683594 C 31.019531 5.859375 24.429688 1.117188 16.332031 1.117188 C 8.234375 1.117188 1.648438 5.859375 1.648438 11.683594 C 1.648438 14.109375 2.789062 16.4375 4.875 18.308594 L 0.00390625 26.414062 "/></g><g clip-rule="nonzero" clip-path="url(#14b0ca0a6d)"><path style=" stroke:none;fill-rule:nonzero;fill:#38b6ff;fill-opacity:1;" d="M 10.90625 13.570312 C 10.90625 20.613281 16.617188 26.320312 23.660156 26.320312 C 26.175781 26.320312 28.523438 25.59375 30.5 24.335938 L 34.699219 25.972656 L 36.609375 26.71875 L 36.265625 25.84375 L 34.25 20.675781 C 35.617188 18.644531 36.414062 16.199219 36.414062 13.570312 C 36.414062 6.523438 30.703125 0.816406 23.660156 0.816406 C 16.617188 0.816406 10.90625 6.523438 10.90625 13.570312 "/></g><path style=" stroke:none;fill-rule:nonzero;fill:#ffffff;fill-opacity:1;" d="M 20.117188 13.765625 C 20.117188 14.195312 19.773438 14.539062 19.34375 14.539062 C 18.917969 14.539062 18.570312 14.195312 18.570312 13.765625 C 18.570312 13.339844 18.917969 12.992188 19.34375 12.992188 C 19.773438 12.992188 20.117188 13.339844 20.117188 13.765625 "/><path style=" stroke:none;fill-rule:nonzero;fill:#ffffff;fill-opacity:1;" d="M 24.53125 13.765625 C 24.53125 14.195312 24.1875 14.539062 23.757812 14.539062 C 23.332031 14.539062 22.984375 14.195312 22.984375 13.765625 C 22.984375 13.339844 23.332031 12.992188 23.757812 12.992188 C 24.1875 12.992188 24.53125 13.339844 24.53125 13.765625 "/><path style=" stroke:none;fill-rule:nonzero;fill:#ffffff;fill-opacity:1;" d="M 28.945312 13.765625 C 28.945312 14.195312 28.597656 14.539062 28.171875 14.539062 C 27.742188 14.539062 27.398438 14.195312 27.398438 13.765625 C 27.398438 13.339844 27.742188 12.992188 28.171875 12.992188 C 28.597656 12.992188 28.945312 13.339844 28.945312 13.765625 "/><g style="fill:#38b6ff;fill-opacity:1;"><g transform="translate(0.3072, 36.19243)"><path style="stroke:none" d="M 1.796875 -2.15625 L 1.796875 0 L 0.546875 0 L 0.546875 -6.09375 L 2.921875 -6.09375 C 3.378906 -6.09375 3.78125 -6.007812 4.125 -5.84375 C 4.476562 -5.675781 4.75 -5.4375 4.9375 -5.125 C 5.125 -4.820312 5.21875 -4.472656 5.21875 -4.078125 C 5.21875 -3.484375 5.007812 -3.015625 4.59375 -2.671875 C 4.1875 -2.328125 3.625 -2.15625 2.90625 -2.15625 Z M 1.796875 -3.171875 L 2.921875 -3.171875 C 3.253906 -3.171875 3.507812 -3.25 3.6875 -3.40625 C 3.863281 -3.5625 3.953125 -3.785156 3.953125 -4.078125 C 3.953125 -4.367188 3.863281 -4.609375 3.6875 -4.796875 C 3.507812 -4.984375 3.265625 -5.078125 2.953125 -5.078125 L 1.796875 -5.078125 Z M 1.796875 -3.171875 "/></g></g><g style="fill:#38b6ff;fill-opacity:1;"><g transform="translate(5.587464, 36.19243)"><path style="stroke:none" d="M 3.171875 -0.453125 C 2.878906 -0.0976562 2.46875 0.078125 1.9375 0.078125 C 1.445312 0.078125 1.070312 -0.0546875 0.8125 -0.328125 C 0.5625 -0.609375 0.4375 -1.019531 0.4375 -1.5625 L 0.4375 -4.53125 L 1.640625 -4.53125 L 1.640625 -1.609375 C 1.640625 -1.128906 1.859375 -0.890625 2.296875 -0.890625 C 2.703125 -0.890625 2.984375 -1.035156 3.140625 -1.328125 L 3.140625 -4.53125 L 4.359375 -4.53125 L 4.359375 0 L 3.21875 0 Z M 3.171875 -0.453125 "/></g></g><g style="fill:#38b6ff;fill-opacity:1;"><g transform="translate(10.134102, 36.19243)"><path style="stroke:none" d="M 1.75 0 L 0.53125 0 L 0.53125 -6.4375 L 1.75 -6.4375 Z M 1.75 0 "/></g></g><g style="fill:#38b6ff;fill-opacity:1;"><g transform="translate(12.152872, 36.19243)"><path style="stroke:none" d="M 2.921875 -1.25 C 2.921875 -1.394531 2.847656 -1.507812 2.703125 -1.59375 C 2.554688 -1.6875 2.320312 -1.765625 2 -1.828125 C 0.914062 -2.054688 0.375 -2.515625 0.375 -3.203125 C 0.375 -3.609375 0.539062 -3.941406 0.875 -4.203125 C 1.207031 -4.472656 1.644531 -4.609375 2.1875 -4.609375 C 2.757812 -4.609375 3.21875 -4.472656 3.5625 -4.203125 C 3.90625 -3.929688 4.078125 -3.582031 4.078125 -3.15625 L 2.875 -3.15625 C 2.875 -3.320312 2.816406 -3.460938 2.703125 -3.578125 C 2.585938 -3.691406 2.414062 -3.75 2.1875 -3.75 C 1.976562 -3.75 1.816406 -3.703125 1.703125 -3.609375 C 1.597656 -3.515625 1.546875 -3.398438 1.546875 -3.265625 C 1.546875 -3.128906 1.609375 -3.019531 1.734375 -2.9375 C 1.859375 -2.851562 2.070312 -2.78125 2.375 -2.71875 C 2.675781 -2.664062 2.929688 -2.597656 3.140625 -2.515625 C 3.773438 -2.285156 4.09375 -1.878906 4.09375 -1.296875 C 4.09375 -0.890625 3.914062 -0.554688 3.5625 -0.296875 C 3.207031 -0.046875 2.75 0.078125 2.1875 0.078125 C 1.8125 0.078125 1.472656 0.0078125 1.171875 -0.125 C 0.878906 -0.257812 0.648438 -0.441406 0.484375 -0.671875 C 0.316406 -0.910156 0.234375 -1.164062 0.234375 -1.4375 L 1.375 -1.4375 C 1.394531 -1.226562 1.476562 -1.066406 1.625 -0.953125 C 1.769531 -0.835938 1.96875 -0.78125 2.21875 -0.78125 C 2.445312 -0.78125 2.617188 -0.820312 2.734375 -0.90625 C 2.859375 -0.988281 2.921875 -1.101562 2.921875 -1.25 Z M 2.921875 -1.25 "/></g></g><g style="fill:#38b6ff;fill-opacity:1;"><g transform="translate(16.30964, 36.19243)"><path style="stroke:none" d="M 2.546875 0.078125 C 1.878906 0.078125 1.335938 -0.125 0.921875 -0.53125 C 0.503906 -0.9375 0.296875 -1.476562 0.296875 -2.15625 L 0.296875 -2.28125 C 0.296875 -2.726562 0.382812 -3.128906 0.5625 -3.484375 C 0.738281 -3.847656 0.988281 -4.125 1.3125 -4.3125 C 1.632812 -4.507812 2.003906 -4.609375 2.421875 -4.609375 C 3.035156 -4.609375 3.519531 -4.410156 3.875 -4.015625 C 4.238281 -3.628906 4.421875 -3.078125 4.421875 -2.359375 L 4.421875 -1.875 L 1.53125 -1.875 C 1.570312 -1.570312 1.6875 -1.332031 1.875 -1.15625 C 2.070312 -0.976562 2.320312 -0.890625 2.625 -0.890625 C 3.09375 -0.890625 3.457031 -1.0625 3.71875 -1.40625 L 4.3125 -0.734375 C 4.132812 -0.472656 3.890625 -0.269531 3.578125 -0.125 C 3.265625 0.0078125 2.921875 0.078125 2.546875 0.078125 Z M 2.40625 -3.640625 C 2.164062 -3.640625 1.972656 -3.554688 1.828125 -3.390625 C 1.679688 -3.234375 1.585938 -3.003906 1.546875 -2.703125 L 3.21875 -2.703125 L 3.21875 -2.796875 C 3.21875 -3.066406 3.144531 -3.273438 3 -3.421875 C 2.863281 -3.566406 2.664062 -3.640625 2.40625 -3.640625 Z M 2.40625 -3.640625 "/></g></g><g style="fill:#f6be31;fill-opacity:1;"><g transform="translate(20.693198, 36.19243)"><path style="stroke:none" d="M 5.140625 -5.078125 L 3.265625 -5.078125 L 3.265625 0 L 2.015625 0 L 2.015625 -5.078125 L 0.171875 -5.078125 L 0.171875 -6.09375 L 5.140625 -6.09375 Z M 5.140625 -5.078125 "/></g></g><g style="fill:#f6be31;fill-opacity:1;"><g transform="translate(25.747086, 36.19243)"><path style="stroke:none" d="M 3.09375 0 C 3.03125 -0.101562 2.988281 -0.238281 2.96875 -0.40625 C 2.675781 -0.0820312 2.296875 0.078125 1.828125 0.078125 C 1.378906 0.078125 1.007812 -0.046875 0.71875 -0.296875 C 0.425781 -0.554688 0.28125 -0.878906 0.28125 -1.265625 C 0.28125 -1.753906 0.457031 -2.125 0.8125 -2.375 C 1.175781 -2.632812 1.691406 -2.765625 2.359375 -2.765625 L 2.921875 -2.765625 L 2.921875 -3.03125 C 2.921875 -3.238281 2.863281 -3.40625 2.75 -3.53125 C 2.644531 -3.65625 2.476562 -3.71875 2.25 -3.71875 C 2.039062 -3.71875 1.878906 -3.664062 1.765625 -3.5625 C 1.648438 -3.46875 1.59375 -3.335938 1.59375 -3.171875 L 0.390625 -3.171875 C 0.390625 -3.429688 0.46875 -3.671875 0.625 -3.890625 C 0.789062 -4.117188 1.019531 -4.296875 1.3125 -4.421875 C 1.613281 -4.546875 1.945312 -4.609375 2.3125 -4.609375 C 2.875 -4.609375 3.316406 -4.46875 3.640625 -4.1875 C 3.972656 -3.914062 4.140625 -3.523438 4.140625 -3.015625 L 4.140625 -1.046875 C 4.140625 -0.617188 4.195312 -0.296875 4.3125 -0.078125 L 4.3125 0 Z M 2.09375 -0.84375 C 2.269531 -0.84375 2.429688 -0.878906 2.578125 -0.953125 C 2.734375 -1.035156 2.847656 -1.144531 2.921875 -1.28125 L 2.921875 -2.0625 L 2.46875 -2.0625 C 1.863281 -2.0625 1.539062 -1.851562 1.5 -1.4375 L 1.5 -1.359375 C 1.5 -1.210938 1.550781 -1.085938 1.65625 -0.984375 C 1.757812 -0.890625 1.90625 -0.84375 2.09375 -0.84375 Z M 2.09375 -0.84375 "/></g></g><g style="fill:#f6be31;fill-opacity:1;"><g transform="translate(30.092501, 36.19243)"><path style="stroke:none" d="M 1.75 0 L 0.53125 0 L 0.53125 -6.4375 L 1.75 -6.4375 Z M 1.75 0 "/></g></g><g style="fill:#f6be31;fill-opacity:1;"><g transform="translate(32.111271, 36.19243)"><path style="stroke:none" d="M 2.109375 -1.8125 L 1.671875 -1.375 L 1.671875 0 L 0.46875 0 L 0.46875 -6.4375 L 1.671875 -6.4375 L 1.671875 -2.875 L 1.90625 -3.171875 L 3.0625 -4.53125 L 4.53125 -4.53125 L 2.890625 -2.640625 L 4.671875 0 L 3.28125 0 Z M 2.109375 -1.8125 "/></g></g></g></svg>