<svg xmlns="http://www.w3.org/2000/svg" xmlns:xlink="http://www.w3.org/1999/xlink" width="500" zoomAndPan="magnify" viewBox="0 0 375 374.999991" height="500" preserveAspectRatio="xMidYMid meet" version="1.2"><defs><clipPath id="f9a66ad004"><path d="M 0 110.914062 L 123.585938 110.914062 L 123.585938 254 L 0 254 Z M 0 110.914062 "/></clipPath></defs><g id="136bb6bca5"><g clip-rule="nonzero" clip-path="url(#f9a66ad004)"><path style=" stroke:none;fill-rule:nonzero;fill:#f4c5cc;fill-opacity:1;" d="M 26.105469 143.542969 L 26.199219 142.734375 C 26.300781 140.683594 25.257812 138.53125 23.867188 137.054688 C 20.808594 133.816406 16.4375 132.441406 12.046875 132.257812 C 7.890625 132.367188 3.953125 133.398438 0.359375 135.488281 C 7.746094 134.898438 10.128906 143.496094 15.777344 146.28125 C 17.847656 147.300781 20.195312 147.640625 22.417969 146.90625 C 23.472656 146.5625 24.28125 145.941406 24.777344 144.976562 L 24.808594 144.683594 C 24.558594 144.339844 23.859375 144.078125 23.457031 143.882812 C 20.808594 142.59375 17.933594 141.714844 15.191406 140.605469 L 15.191406 140.542969 C 18.804688 141.515625 22.625 142.175781 26.105469 143.542969 Z M 0.824219 149.554688 C 0 152.230469 0.03125 155.464844 0.0078125 157.902344 C -0.03125 162.019531 0.359375 166.105469 1.546875 170.074219 C 3.960938 178.179688 9.414062 185.488281 16.824219 190.03125 C 17.742188 190.597656 18.695312 191.128906 19.667969 191.59375 C 20.078125 191.789062 21.414062 192.128906 21.554688 192.617188 C 21.71875 193.15625 20.667969 194.34375 20.429688 194.839844 C 19.921875 195.910156 19.488281 197.015625 19.09375 198.140625 C 17.695312 202.195312 16.996094 206.472656 17.128906 210.753906 C 17.382812 218.839844 20.714844 226.378906 26.136719 232.492188 C 28.949219 235.667969 32.25 238.449219 35.867188 240.757812 C 38.066406 242.164062 40.386719 243.382812 42.796875 244.421875 C 44.007812 244.941406 45.25 245.402344 46.484375 245.882812 C 47.542969 246.292969 48.855469 247.039062 50.019531 247.023438 C 49.660156 246.472656 48.738281 246.191406 48.15625 245.875 C 47.433594 245.472656 46.734375 245.027344 46.058594 244.554688 C 44.558594 243.511719 43.136719 242.363281 41.824219 241.113281 C 39.527344 238.9375 37.539062 236.429688 36.140625 233.632812 C 33.164062 227.683594 33.328125 220.664062 36.832031 214.957031 C 39.953125 209.875 45.09375 206.421875 49.484375 202.445312 C 54.1875 198.195312 58.304688 193.269531 60.898438 187.546875 C 62.53125 183.9375 63.640625 180.113281 64.285156 176.238281 C 64.589844 174.367188 64.789062 172.480469 64.882812 170.59375 C 64.921875 169.699219 64.953125 168.796875 64.945312 167.890625 C 64.9375 166.949219 64.667969 165.847656 64.9375 164.929688 C 65.390625 165.675781 65.421875 166.792969 65.566406 167.632812 C 65.707031 168.472656 65.878906 169.320312 66.011719 170.164062 C 66.328125 172.167969 66.445312 174.1875 66.390625 176.214844 C 66.289062 180.082031 65.558594 183.921875 64.253906 187.585938 C 61.785156 194.5 57.257812 200.285156 51.679688 205.175781 C 46.617188 209.605469 40.140625 213.152344 37.964844 219.800781 C 36.894531 223.078125 36.917969 226.730469 38.390625 229.890625 C 39.859375 233.050781 42.429688 235.242188 45.398438 236.828125 C 52.324219 240.515625 60.222656 239.933594 67.84375 239.878906 C 75.46875 239.824219 83.554688 241.261719 89.203125 246.738281 C 90.4375 247.933594 91.515625 249.261719 92.449219 250.683594 C 92.898438 251.367188 93.230469 252.074219 93.621094 252.785156 C 94.171875 253.78125 94.652344 253.152344 95.242188 252.492188 C 97.824219 249.601562 100.417969 246.722656 102.785156 243.660156 C 107.4375 237.632812 111.320312 230.894531 112.710938 223.429688 C 113.472656 219.351562 113.472656 215.09375 112.308594 211.082031 C 111.148438 207.074219 108.851562 203.925781 106.015625 201.023438 C 103.179688 198.125 99.855469 195.53125 96.820312 192.734375 C 95.28125 191.3125 93.792969 189.832031 92.472656 188.222656 C 91.910156 187.539062 91.351562 186.839844 90.824219 186.132812 C 90.335938 185.488281 89.449219 184.472656 89.472656 183.632812 C 90.25 184.230469 90.753906 185.234375 91.382812 185.976562 C 92.199219 186.941406 93.117188 187.828125 94.078125 188.664062 C 95.933594 190.273438 97.984375 191.671875 100.035156 193.03125 C 104.050781 195.695312 108.089844 198.390625 111.421875 201.867188 C 114.441406 205.015625 116.78125 208.789062 117.804688 212.992188 C 118.917969 217.589844 118.527344 222.503906 116.835938 226.925781 C 115.949219 229.253906 114.714844 231.453125 113.214844 233.472656 C 112.371094 234.605469 111.453125 235.699219 110.441406 236.6875 C 109.628906 237.480469 108.207031 238.179688 107.6875 239.171875 C 108.71875 239.140625 109.96875 237.984375 110.785156 237.441406 C 112.035156 236.609375 113.238281 235.714844 114.351562 234.714844 C 116.339844 232.941406 118.085938 230.886719 119.453125 228.632812 C 122.332031 223.917969 123.539062 218.320312 123.078125 212.882812 C 122.613281 207.445312 120.453125 202.257812 116.804688 198.117188 C 113.160156 193.976562 108.292969 191.042969 103.445312 188.355469 C 100.515625 186.730469 97.503906 185.1875 94.785156 183.230469 C 93.597656 182.375 92.464844 181.441406 91.453125 180.394531 C 90.941406 179.859375 90.460938 179.292969 90 178.730469 C 89.714844 178.382812 88.945312 177.683594 89.085938 177.203125 C 89.847656 177.09375 90.808594 177.574219 91.53125 177.769531 C 92.214844 177.957031 92.90625 178.0625 93.613281 178.101562 C 95.121094 178.1875 96.75 178.101562 98.15625 177.519531 C 99.335938 177.03125 100.261719 176.191406 100.75 175.035156 C 101.023438 174.382812 101.152344 173.675781 101.160156 172.96875 C 101.175781 172.089844 100.898438 171.160156 101.160156 170.289062 C 101.511719 169.125 102.949219 168.339844 102.691406 166.988281 C 102.605469 166.507812 102.039062 166.28125 101.953125 165.910156 C 101.84375 165.445312 102.855469 164.820312 103.105469 164.425781 C 103.414062 163.953125 103.625 163.371094 103.351562 162.839844 C 103.148438 162.4375 102.691406 162.242188 102.40625 161.902344 C 101.691406 161.023438 102.503906 160.285156 103.257812 159.757812 C 104.011719 159.230469 104.851562 158.828125 105.503906 158.160156 C 105.921875 157.738281 106.34375 157.234375 106.441406 156.644531 C 106.574219 155.8125 106.023438 155.355469 105.457031 154.828125 C 104.609375 154.027344 103.742188 153.101562 103.042969 152.164062 C 102.675781 151.671875 102.753906 151.386719 102.988281 150.84375 C 103.375 149.949219 103.765625 149.0625 104.144531 148.15625 C 105.410156 145.101562 106.535156 141.917969 106.527344 138.585938 C 106.527344 135.433594 105.644531 132.328125 104.222656 129.507812 C 101.589844 124.296875 97.109375 120.03125 92.097656 116.910156 C 86.746094 113.554688 80.175781 111.203125 73.753906 111.007812 C 70.738281 110.914062 67.554688 111.300781 64.574219 111.785156 C 61.785156 112.242188 59.042969 112.941406 56.402344 113.917969 C 50.964844 115.9375 46.042969 119.175781 42.320312 123.511719 C 37.769531 128.816406 35.207031 135.503906 34.238281 142.261719 C 33.671875 146.175781 33.769531 150.128906 33.484375 154.058594 C 33.359375 155.78125 33.09375 157.460938 32.683594 159.144531 C 32.488281 159.96875 32.085938 162.335938 31.074219 162.617188 C 30.828125 161.925781 31.269531 160.960938 31.386719 160.269531 C 31.566406 159.207031 31.636719 158.128906 31.628906 157.0625 C 31.613281 155.042969 31.355469 152.992188 30.789062 151.042969 C 30.382812 149.636719 29.777344 148.234375 28.886719 147.042969 C 28.21875 146.144531 26.765625 144.597656 25.460938 144.722656 C 25.703125 145.1875 26.332031 145.445312 26.71875 145.808594 C 27.191406 146.238281 27.558594 146.78125 27.898438 147.316406 C 28.753906 148.667969 29.351562 150.167969 29.730469 151.710938 C 30.515625 154.925781 30.277344 158.105469 29.695312 161.328125 C 29.539062 162.195312 29.65625 163.347656 28.605469 163.570312 C 27.105469 163.890625 25.34375 163.75 23.835938 163.554688 C 22.230469 163.339844 20.644531 162.933594 19.152344 162.328125 C 18.492188 162.058594 17.824219 161.769531 17.210938 161.40625 C 16.652344 161.085938 16.078125 160.441406 15.433594 160.324219 C 15.722656 161.328125 16.964844 162.257812 17.796875 162.871094 C 18.851562 163.640625 20.015625 164.269531 21.234375 164.746094 C 24.125 165.886719 27.339844 166.089844 30.421875 165.824219 C 36.683594 165.273438 42.671875 162.773438 48.179688 159.984375 C 59.523438 154.234375 69.265625 146.167969 78.972656 138.214844 C 81.707031 135.96875 84.417969 133.777344 86.730469 131.105469 C 87.828125 129.832031 88.859375 128.496094 89.644531 127.015625 C 90 126.339844 90.320312 125.640625 90.484375 124.902344 C 90.667969 124.09375 90.445312 123.347656 90.5625 122.554688 C 91.234375 124.007812 90.730469 125.949219 90.179688 127.363281 C 89.519531 129.070312 88.496094 130.632812 87.429688 132.125 C 85.085938 135.378906 82.273438 138.222656 79.316406 140.964844 C 73.0625 146.765625 66.6875 152.535156 59.585938 157.375 C 52.921875 161.910156 45.597656 165.691406 37.691406 167.757812 C 30.285156 169.691406 22.050781 170.125 15.046875 166.671875 C 11.332031 164.84375 8.117188 162.019531 5.957031 158.570312 C 4.800781 156.738281 3.945312 154.734375 3.386719 152.667969 C 3.109375 151.640625 2.90625 150.585938 2.773438 149.53125 C 2.648438 148.511719 2.742188 147.488281 2.417969 146.539062 C 1.679688 147.371094 1.175781 148.410156 0.824219 149.546875 Z M 68.558594 115.285156 C 66.617188 115.511719 64.753906 115.84375 62.894531 116.445312 C 58.25 117.964844 54.050781 121.042969 51.042969 124.785156 C 45.5625 131.589844 43.214844 140.472656 44.269531 149.039062 C 44.644531 152.125 45.46875 155.035156 46.382812 157.996094 C 44.902344 155.609375 43.632812 153.070312 42.757812 150.40625 C 41.621094 146.933594 41.21875 143.082031 41.390625 139.441406 L 41.585938 137.359375 C 41.636719 136.996094 41.808594 136.464844 41.769531 136.125 C 40.863281 137.429688 40.195312 138.898438 39.589844 140.355469 C 38.59375 142.734375 37.753906 145.257812 37.226562 147.78125 C 36.957031 149.039062 36.808594 150.304688 36.636719 151.578125 C 36.394531 151.035156 36.566406 149.785156 36.582031 149.171875 C 36.746094 143.8125 37.886719 138.609375 39.914062 133.617188 C 40.597656 131.945312 41.359375 130.316406 42.335938 128.777344 C 45.515625 123.769531 50.351562 119.921875 55.875 117.585938 C 59.820312 115.921875 64.253906 114.945312 68.550781 115.285156 Z M 68.667969 187.027344 C 68.898438 186.460938 69.109375 185.886719 69.3125 185.324219 C 70.902344 180.898438 71.554688 176.355469 71.175781 171.679688 C 70.980469 169.296875 70.539062 166.957031 70.21875 164.597656 C 70.070312 163.492188 69.941406 162.375 69.886719 161.257812 C 69.832031 160.140625 69.667969 158.703125 70.011719 157.621094 C 70.28125 157.824219 70.421875 158.460938 70.554688 158.765625 C 70.730469 159.160156 70.894531 159.554688 71.105469 159.929688 C 71.53125 160.707031 72.105469 161.40625 72.921875 161.832031 C 74.925781 162.886719 77.339844 162.074219 78.910156 160.675781 C 80.480469 159.277344 81.296875 156.992188 80.589844 154.941406 C 80.277344 154.019531 79.671875 153.179688 78.746094 152.753906 C 78.15625 152.480469 76.757812 152.15625 76.417969 152.945312 C 77.085938 153.039062 77.597656 152.914062 78.195312 153.3125 C 78.699219 153.652344 79.042969 154.191406 79.175781 154.765625 C 79.46875 156.054688 78.699219 157.34375 77.496094 157.894531 C 76.292969 158.445312 74.832031 158.296875 73.917969 157.351562 C 73.007812 156.410156 72.992188 155.113281 73.203125 153.964844 C 73.511719 152.378906 74.398438 150.917969 75.316406 149.589844 C 76.378906 148.0625 77.558594 146.601562 78.792969 145.203125 C 81.316406 142.328125 84.089844 139.679688 86.699219 136.878906 C 88.160156 135.308594 89.589844 133.695312 90.894531 132 C 91.492188 131.222656 92.058594 130.421875 92.5625 129.578125 C 93.503906 127.992188 93.652344 126.113281 95.152344 128.480469 C 95.59375 129.171875 96.066406 129.839844 96.496094 130.53125 C 97.464844 132.078125 98.351562 133.714844 98.925781 135.433594 C 99.5 137.15625 99.539062 138.789062 99.289062 140.535156 C 99.035156 142.277344 98.605469 143.875 98.558594 145.570312 C 98.511719 147.386719 99.058594 149.039062 99.925781 150.632812 C 100.789062 152.230469 101.746094 153.753906 102.988281 155.082031 C 103.351562 155.472656 104.121094 155.914062 104.253906 156.433594 C 104.410156 157.0625 103.625 157.582031 103.148438 157.839844 C 102.542969 158.167969 99.855469 158.695312 99.910156 159.601562 C 100.394531 159.679688 100.875 159.488281 101.355469 159.59375 C 101.199219 159.921875 100.875 160.085938 100.789062 160.464844 C 100.6875 160.898438 100.875 161.242188 101.101562 161.597656 C 101.332031 161.949219 101.464844 162.148438 101.054688 162.414062 C 100.679688 162.671875 100.214844 162.789062 99.832031 163.050781 C 99.011719 163.601562 98.34375 164.332031 97.480469 164.835938 C 97.039062 165.085938 96.609375 165.242188 96.105469 165.304688 C 95.734375 165.351562 95.058594 165.304688 94.800781 165.605469 C 94.910156 166.25 96.089844 166.871094 96.585938 167.230469 C 97.214844 167.695312 97.808594 168.199219 98.511719 168.558594 C 98.746094 168.683594 99.226562 168.78125 99.40625 168.984375 C 99.757812 169.382812 99.460938 169.503906 99.242188 169.886719 C 98.839844 170.585938 98.910156 171.378906 98.957031 172.152344 C 99.066406 173.816406 98.542969 175.074219 96.820312 175.664062 C 95.25 176.199219 93.464844 175.984375 91.867188 175.640625 C 87.964844 174.785156 83.957031 173.441406 80.402344 171.65625 C 78.808594 170.855469 77.265625 169.925781 75.890625 168.8125 C 75.222656 168.269531 74.625 167.648438 74.070312 167.003906 C 73.511719 166.359375 72.9375 165.40625 72.207031 164.898438 C 72.183594 165.566406 72.804688 166.445312 73.140625 167.003906 C 73.574219 167.710938 74.03125 168.417969 74.492188 169.101562 C 75.507812 170.609375 76.695312 172 77.996094 173.289062 C 78.59375 173.878906 79.214844 174.4375 79.875 174.957031 C 80.097656 175.128906 80.804688 175.445312 80.914062 175.726562 C 81.039062 176.066406 80.695312 176.480469 80.535156 176.757812 C 79.679688 178.242188 79.121094 179.859375 78.648438 181.496094 C 77.582031 185.179688 77.085938 188.960938 77.386719 192.789062 C 77.628906 195.957031 78.351562 199.5625 81.039062 201.675781 C 83.4375 203.5625 86.707031 203.949219 89.441406 205.199219 C 92.175781 206.445312 94.628906 208.277344 96.578125 210.527344 C 101.054688 215.703125 102.382812 222.644531 101.945312 229.230469 C 101.667969 233.378906 100.710938 237.472656 99.320312 241.410156 C 98.621094 243.382812 97.808594 245.316406 96.960938 247.234375 C 96.5625 248.148438 96.136719 249.050781 95.757812 249.96875 C 95.453125 250.714844 95.152344 251.980469 94.460938 252.5 C 94.09375 252.226562 94.320312 251.085938 94.335938 250.683594 C 94.375 249.773438 94.257812 248.871094 94.109375 247.972656 C 93.785156 246.054688 93.214844 244.171875 92.410156 242.386719 C 90.933594 239.0625 88.6875 236.113281 85.925781 233.664062 C 79.976562 228.375 72.214844 225.402344 65.414062 221.308594 C 62.089844 219.304688 59.222656 216.859375 57.132812 213.628906 C 56.101562 212.042969 55.355469 210.335938 54.710938 208.585938 C 54.5 208.011719 53.933594 207.035156 54.273438 206.429688 C 54.421875 206.164062 54.75 205.96875 54.980469 205.777344 C 55.410156 205.433594 55.835938 205.070312 56.261719 204.710938 C 61.753906 199.972656 65.988281 193.644531 68.652344 186.996094 Z M 91.546875 138.476562 C 92.214844 138.484375 92.890625 138.601562 93.542969 138.742188 C 94.0625 138.851562 94.582031 138.996094 95.082031 139.175781 C 95.507812 139.324219 95.957031 139.496094 96.332031 139.75 C 96.992188 140.179688 97.183594 141.039062 97.238281 141.761719 C 97.253906 141.964844 97.332031 142.757812 96.953125 142.671875 C 96.828125 142.640625 96.6875 142.515625 96.585938 142.445312 C 96.417969 142.328125 96.253906 142.222656 96.082031 142.113281 C 95.210938 141.570312 94.3125 141.085938 93.339844 140.722656 C 92.363281 140.363281 91.421875 140.140625 90.414062 140.039062 C 90.109375 140.007812 89.792969 140.039062 89.488281 140.054688 C 89.179688 140.070312 88.890625 140.109375 88.601562 140.15625 C 88.042969 140.257812 87.492188 140.410156 86.949219 140.589844 C 86.40625 140.769531 85.917969 140.972656 85.417969 141.203125 C 85.15625 141.320312 84.898438 141.445312 84.640625 141.578125 C 84.519531 141.644531 84.402344 141.699219 84.285156 141.761719 C 84.160156 141.832031 84.027344 141.917969 83.882812 141.972656 C 84.050781 141.777344 84.292969 141.609375 84.488281 141.453125 C 85.535156 140.628906 86.730469 139.960938 87.949219 139.402344 C 88.867188 138.976562 89.832031 138.632812 90.855469 138.523438 C 91.082031 138.5 91.304688 138.492188 91.53125 138.492188 Z M 90.171875 144.808594 C 90.644531 144.738281 91.121094 144.730469 91.609375 144.738281 C 91.484375 144.769531 91.367188 144.839844 91.25 144.886719 L 90.476562 145.210938 C 90.09375 145.375 89.707031 145.539062 89.324219 145.699219 C 88.640625 146.011719 87.964844 146.375 87.273438 146.695312 C 86.917969 146.859375 86.554688 147.019531 86.195312 147.152344 C 85.832031 147.285156 85.449219 147.386719 85.070312 147.496094 C 85.171875 147.527344 85.277344 147.609375 85.363281 147.664062 L 85.945312 147.992188 C 86.242188 148.164062 86.539062 148.332031 86.839844 148.503906 C 87.828125 149.101562 88.796875 149.753906 89.90625 150.136719 C 90.484375 150.34375 91.082031 150.429688 91.695312 150.484375 C 91.996094 150.507812 92.292969 150.53125 92.59375 150.578125 C 92.742188 150.601562 92.890625 150.632812 93.039062 150.671875 C 93.117188 150.6875 93.1875 150.710938 93.269531 150.734375 C 93.355469 150.757812 93.441406 150.8125 93.527344 150.820312 C 93.566406 150.734375 93.472656 150.53125 93.441406 150.445312 C 93.394531 150.320312 93.316406 150.191406 93.277344 150.058594 C 93.238281 149.925781 93.292969 149.761719 93.324219 149.628906 C 93.355469 149.453125 93.394531 149.289062 93.433594 149.117188 C 93.503906 148.816406 93.574219 148.527344 93.628906 148.226562 C 93.652344 148.101562 93.675781 147.984375 93.714844 147.859375 C 93.730469 147.796875 93.753906 147.734375 93.785156 147.679688 C 93.824219 147.609375 93.839844 147.582031 93.929688 147.582031 C 94.171875 147.566406 94.40625 147.566406 94.644531 147.480469 C 94.878906 147.394531 95.097656 147.253906 95.304688 147.089844 C 95.695312 146.765625 96.019531 146.375 96.238281 145.917969 C 96.480469 145.429688 96.625 144.886719 96.695312 144.355469 C 96.609375 144.511719 96.496094 144.660156 96.394531 144.816406 C 96.292969 144.976562 96.191406 145.140625 96.082031 145.296875 C 95.886719 145.570312 95.617188 145.808594 95.289062 145.925781 C 95.113281 145.980469 94.925781 146.019531 94.746094 146.003906 C 94.660156 146.003906 94.566406 145.980469 94.484375 145.949219 C 94.367188 145.902344 94.234375 145.863281 94.265625 145.722656 C 94.3125 145.515625 94.429688 145.328125 94.523438 145.140625 C 94.574219 145.046875 94.613281 144.960938 94.660156 144.863281 C 94.683594 144.808594 94.800781 144.605469 94.746094 144.558594 C 94.675781 144.496094 94.492188 144.644531 94.445312 144.675781 C 94.328125 144.761719 94.195312 144.832031 94.046875 144.808594 C 93.636719 144.746094 93.300781 144.417969 92.929688 144.25 C 92.488281 144.054688 91.957031 143.992188 91.46875 144 C 90.40625 144.015625 89.386719 144.410156 88.425781 144.816406 C 87.445312 145.265625 86.460938 145.714844 85.480469 146.152344 C 85.339844 146.214844 85.164062 146.261719 85.078125 146.390625 C 85.148438 146.421875 85.1875 146.390625 85.257812 146.359375 C 85.402344 146.3125 85.542969 146.261719 85.683594 146.207031 C 85.953125 146.113281 86.21875 146.019531 86.476562 145.925781 C 87.042969 145.722656 87.617188 145.507812 88.191406 145.320312 C 88.765625 145.132812 89.308594 144.976562 89.878906 144.863281 C 89.984375 144.839844 90.085938 144.824219 90.1875 144.808594 Z M 90.289062 149.5625 C 90.164062 149.554688 90.015625 149.46875 89.902344 149.421875 C 89.785156 149.375 89.660156 149.320312 89.542969 149.265625 C 89.300781 149.15625 89.085938 149.023438 88.875 148.863281 C 88.6875 148.722656 88.496094 148.582031 88.332031 148.417969 C 88.246094 148.339844 88.175781 148.242188 88.105469 148.15625 C 88.074219 148.117188 88.003906 148.039062 87.996094 147.992188 C 87.996094 147.8125 88.6875 147.527344 88.828125 147.464844 C 88.9375 147.417969 89.046875 147.371094 89.164062 147.324219 C 89.285156 147.277344 89.464844 147.183594 89.582031 147.191406 C 89.636719 147.269531 89.621094 147.433594 89.628906 147.535156 C 89.636719 147.640625 89.652344 147.742188 89.660156 147.84375 C 89.683594 148.039062 89.714844 148.242188 89.761719 148.441406 C 89.808594 148.628906 89.863281 148.808594 89.953125 148.984375 C 90 149.085938 90.046875 149.179688 90.109375 149.28125 C 90.171875 149.382812 90.265625 149.46875 90.296875 149.570312 Z M 92.019531 148.792969 C 92.097656 148.824219 92.136719 148.953125 92.144531 149.023438 C 92.167969 149.210938 92.105469 149.390625 91.949219 149.515625 C 91.789062 149.644531 91.578125 149.675781 91.398438 149.613281 C 91.191406 149.539062 91.027344 149.328125 90.910156 149.164062 C 90.761719 148.953125 90.660156 148.699219 90.605469 148.449219 C 90.539062 148.171875 90.523438 147.875 90.554688 147.601562 C 90.582031 147.363281 90.644531 146.988281 90.910156 146.898438 C 90.957031 147.019531 90.933594 147.144531 90.933594 147.269531 C 90.933594 147.394531 90.933594 147.527344 90.941406 147.65625 C 90.957031 147.890625 91.011719 148.125 91.113281 148.347656 C 91.167969 148.457031 91.242188 148.558594 91.320312 148.652344 C 91.40625 148.753906 91.539062 148.792969 91.671875 148.808594 C 91.726562 148.808594 91.789062 148.808594 91.84375 148.808594 C 91.894531 148.808594 91.972656 148.769531 92.019531 148.792969 Z M 92.019531 148.792969 "/></g><g style="fill:#f4c5cc;fill-opacity:1;"><g transform="translate(128.782393, 233.294046)"><path style="stroke:none" d="M 13.15625 3.25 C 9.445312 3.25 6.582031 2.265625 4.5625 0.296875 C 2.550781 -1.671875 1.546875 -4.21875 1.546875 -7.34375 C 1.546875 -10.21875 2.253906 -13.019531 3.671875 -15.75 C 5.085938 -18.476562 6.878906 -20.992188 9.046875 -23.296875 C 10.816406 -25.160156 12.84375 -26.773438 15.125 -28.140625 C 17.40625 -29.515625 19.800781 -30.582031 22.3125 -31.34375 C 24.832031 -32.113281 27.296875 -32.5 29.703125 -32.5 C 31.597656 -32.5 33.3125 -32.238281 34.84375 -31.71875 C 36.382812 -31.207031 37.601562 -30.398438 38.5 -29.296875 C 39.394531 -28.203125 39.84375 -26.769531 39.84375 -25 C 39.84375 -23.4375 39.46875 -21.976562 38.71875 -20.625 C 37.96875 -19.269531 36.96875 -18.09375 35.71875 -17.09375 C 34.46875 -16.09375 33.09375 -15.3125 31.59375 -14.75 C 30.09375 -14.1875 28.578125 -13.90625 27.046875 -13.90625 C 25.046875 -13.90625 23.363281 -14.363281 22 -15.28125 C 20.632812 -16.195312 19.953125 -17.351562 19.953125 -18.75 C 19.953125 -20.550781 21.101562 -22.316406 23.40625 -24.046875 C 23.800781 -24.347656 24.113281 -24.5 24.34375 -24.5 C 24.507812 -24.5 24.59375 -24.429688 24.59375 -24.296875 C 24.59375 -23.960938 24.328125 -23.695312 23.796875 -23.5 C 21.929688 -22 21 -20.484375 21 -18.953125 C 21 -17.847656 21.5 -16.921875 22.5 -16.171875 C 23.5 -15.421875 24.75 -15.046875 26.25 -15.046875 C 27.582031 -15.046875 28.921875 -15.328125 30.265625 -15.890625 C 31.617188 -16.460938 32.863281 -17.234375 34 -18.203125 C 35.132812 -19.171875 36.039062 -20.257812 36.71875 -21.46875 C 37.40625 -22.6875 37.75 -23.960938 37.75 -25.296875 C 37.75 -27.460938 37.015625 -29.046875 35.546875 -30.046875 C 34.078125 -31.046875 32.210938 -31.546875 29.953125 -31.546875 C 27.378906 -31.546875 24.832031 -31.0625 22.3125 -30.09375 C 19.800781 -29.132812 17.445312 -27.800781 15.25 -26.09375 C 13.050781 -24.394531 11.082031 -22.445312 9.34375 -20.25 C 5.882812 -15.882812 4.15625 -11.785156 4.15625 -7.953125 C 4.15625 -5.921875 4.617188 -4.195312 5.546875 -2.78125 C 6.484375 -1.363281 7.773438 -0.289062 9.421875 0.4375 C 11.078125 1.175781 12.96875 1.546875 15.09375 1.546875 C 18.257812 1.546875 21.328125 0.859375 24.296875 -0.515625 C 27.265625 -1.898438 29.800781 -3.757812 31.90625 -6.09375 C 32.46875 -6.695312 32.882812 -7 33.15625 -7 C 33.351562 -7 33.453125 -6.847656 33.453125 -6.546875 C 33.453125 -6.148438 33.269531 -5.769531 32.90625 -5.40625 C 31.769531 -4.195312 30.414062 -3.078125 28.84375 -2.046875 C 27.28125 -1.015625 25.609375 -0.0976562 23.828125 0.703125 C 22.046875 1.503906 20.238281 2.128906 18.40625 2.578125 C 16.570312 3.023438 14.820312 3.25 13.15625 3.25 Z M 13.15625 3.25 "/></g></g><g style="fill:#f4c5cc;fill-opacity:1;"><g transform="translate(165.076778, 233.294046)"><path style="stroke:none" d="M 3.34375 0.25 C 2.550781 0.25 1.753906 -0.03125 0.953125 -0.59375 C 0.148438 -1.164062 -0.300781 -1.832031 -0.40625 -2.59375 C -0.738281 -5.164062 0.878906 -8.21875 4.453125 -11.75 C 7.984375 -15.28125 11.164062 -17.046875 14 -17.046875 C 14.769531 -17.046875 15.367188 -16.863281 15.796875 -16.5 C 16.035156 -16.269531 16.210938 -15.953125 16.328125 -15.546875 C 16.441406 -15.148438 16.53125 -14.953125 16.59375 -14.953125 C 16.726562 -14.953125 16.84375 -14.972656 16.9375 -15.015625 C 17.039062 -15.066406 17.160156 -15.09375 17.296875 -15.09375 C 17.703125 -15.09375 18.050781 -14.941406 18.34375 -14.640625 C 18.644531 -14.347656 18.8125 -14.082031 18.84375 -13.84375 C 18.882812 -13.78125 17.820312 -12.132812 15.65625 -8.90625 C 13.488281 -5.738281 12.503906 -3.585938 12.703125 -2.453125 C 12.867188 -1.679688 13.234375 -1.296875 13.796875 -1.296875 C 15.535156 -1.296875 18.703125 -4.164062 23.296875 -9.90625 C 23.398438 -10.03125 23.5 -10.09375 23.59375 -10.09375 C 23.757812 -10.09375 23.84375 -9.976562 23.84375 -9.75 C 23.84375 -9.476562 23.695312 -9.144531 23.40625 -8.75 C 19.164062 -3.050781 15.914062 -0.203125 13.65625 -0.203125 C 13.351562 -0.203125 13.066406 -0.25 12.796875 -0.34375 C 11.328125 -0.914062 10.59375 -2.019531 10.59375 -3.65625 C 10.59375 -4.21875 10.660156 -4.78125 10.796875 -5.34375 L 7.703125 -2.34375 C 6.765625 -1.414062 5.921875 -0.75 5.171875 -0.34375 C 4.421875 0.0507812 3.8125 0.25 3.34375 0.25 Z M 2.90625 -0.84375 C 4.832031 -0.84375 7.460938 -2.960938 10.796875 -7.203125 L 16.09375 -14.5 C 15.832031 -14.96875 15.398438 -15.203125 14.796875 -15.203125 C 12.765625 -15.203125 10.015625 -13.566406 6.546875 -10.296875 C 2.953125 -6.960938 1.335938 -4.210938 1.703125 -2.046875 C 1.867188 -1.242188 2.269531 -0.84375 2.90625 -0.84375 Z M 2.90625 -0.84375 "/></g></g><g style="fill:#f4c5cc;fill-opacity:1;"><g transform="translate(185.67359, 233.294046)"><path style="stroke:none" d="M 3.796875 0.09375 C 2.828125 0.09375 1.925781 -0.144531 1.09375 -0.625 C 0.257812 -1.101562 -0.15625 -1.910156 -0.15625 -3.046875 C -0.15625 -4.617188 0.398438 -6.488281 1.515625 -8.65625 C 2.640625 -10.820312 3.914062 -13.070312 5.34375 -15.40625 C 9.25 -21.738281 12.019531 -24.90625 13.65625 -24.90625 C 13.988281 -24.90625 14.328125 -24.78125 14.671875 -24.53125 C 15.023438 -24.28125 15.21875 -24.003906 15.25 -23.703125 L 11.75 -19 C 10.382812 -17.164062 9.148438 -15.472656 8.046875 -13.921875 C 6.953125 -12.367188 6.003906 -10.976562 5.203125 -9.75 C 4.796875 -9.113281 4.34375 -8.394531 3.84375 -7.59375 C 3.34375 -6.800781 2.898438 -5.976562 2.515625 -5.125 C 2.140625 -4.269531 1.953125 -3.410156 1.953125 -2.546875 C 1.953125 -2.148438 2.066406 -1.789062 2.296875 -1.46875 C 2.535156 -1.15625 2.953125 -1 3.546875 -1 C 4.617188 -1 6.019531 -1.570312 7.75 -2.71875 C 9.476562 -3.875 11.195312 -5.46875 12.90625 -7.5 C 13.070312 -7.695312 13.253906 -7.878906 13.453125 -8.046875 C 13.648438 -8.210938 13.816406 -8.296875 13.953125 -8.296875 C 14.117188 -8.296875 14.203125 -8.195312 14.203125 -8 C 14.203125 -7.894531 14.09375 -7.703125 13.875 -7.421875 C 13.65625 -7.140625 13.476562 -6.914062 13.34375 -6.75 L 12.15625 -5.40625 C 11.488281 -4.664062 10.695312 -3.863281 9.78125 -3 C 8.863281 -2.132812 7.894531 -1.398438 6.875 -0.796875 C 5.851562 -0.203125 4.828125 0.09375 3.796875 0.09375 Z M 3.796875 0.09375 "/></g></g><g style="fill:#f4c5cc;fill-opacity:1;"><g transform="translate(197.82171, 233.294046)"><path style="stroke:none" d="M 3.796875 0.09375 C 2.828125 0.09375 1.925781 -0.144531 1.09375 -0.625 C 0.257812 -1.101562 -0.15625 -1.910156 -0.15625 -3.046875 C -0.15625 -4.617188 0.398438 -6.488281 1.515625 -8.65625 C 2.640625 -10.820312 3.914062 -13.070312 5.34375 -15.40625 C 9.25 -21.738281 12.019531 -24.90625 13.65625 -24.90625 C 13.988281 -24.90625 14.328125 -24.78125 14.671875 -24.53125 C 15.023438 -24.28125 15.21875 -24.003906 15.25 -23.703125 L 11.75 -19 C 10.382812 -17.164062 9.148438 -15.472656 8.046875 -13.921875 C 6.953125 -12.367188 6.003906 -10.976562 5.203125 -9.75 C 4.796875 -9.113281 4.34375 -8.394531 3.84375 -7.59375 C 3.34375 -6.800781 2.898438 -5.976562 2.515625 -5.125 C 2.140625 -4.269531 1.953125 -3.410156 1.953125 -2.546875 C 1.953125 -2.148438 2.066406 -1.789062 2.296875 -1.46875 C 2.535156 -1.15625 2.953125 -1 3.546875 -1 C 4.617188 -1 6.019531 -1.570312 7.75 -2.71875 C 9.476562 -3.875 11.195312 -5.46875 12.90625 -7.5 C 13.070312 -7.695312 13.253906 -7.878906 13.453125 -8.046875 C 13.648438 -8.210938 13.816406 -8.296875 13.953125 -8.296875 C 14.117188 -8.296875 14.203125 -8.195312 14.203125 -8 C 14.203125 -7.894531 14.09375 -7.703125 13.875 -7.421875 C 13.65625 -7.140625 13.476562 -6.914062 13.34375 -6.75 L 12.15625 -5.40625 C 11.488281 -4.664062 10.695312 -3.863281 9.78125 -3 C 8.863281 -2.132812 7.894531 -1.398438 6.875 -0.796875 C 5.851562 -0.203125 4.828125 0.09375 3.796875 0.09375 Z M 3.796875 0.09375 "/></g></g><g style="fill:#f4c5cc;fill-opacity:1;"><g transform="translate(209.96983, 233.294046)"><path style="stroke:none" d="M 47.25 3.34375 C 46.644531 3.34375 46.242188 3.195312 46.046875 2.90625 C 45.453125 2.03125 45.15625 0.976562 45.15625 -0.25 C 45.15625 -3.113281 46.6875 -7.226562 49.75 -12.59375 C 51.71875 -15.96875 54.75 -20.503906 58.84375 -26.203125 C 57.113281 -24.765625 55.234375 -23.113281 53.203125 -21.25 C 51.171875 -19.382812 48.988281 -17.316406 46.65625 -15.046875 C 43.613281 -12.078125 41.132812 -9.46875 39.21875 -7.21875 C 37.300781 -4.96875 35.925781 -3.113281 35.09375 -1.65625 C 34.226562 -0.0820312 33.179688 0.703125 31.953125 0.703125 C 31.378906 0.703125 31.09375 0.5 31.09375 0.09375 C 31.09375 -0.03125 31.144531 -0.160156 31.25 -0.296875 C 31.8125 -1.203125 32.539062 -2.394531 33.4375 -3.875 C 34.34375 -5.351562 35.414062 -7.128906 36.65625 -9.203125 C 40.25 -15.460938 42.832031 -20.445312 44.40625 -24.15625 C 44.96875 -25.550781 45.25 -26.566406 45.25 -27.203125 C 45.25 -27.734375 45.066406 -28 44.703125 -28 C 44.203125 -28 43.414062 -27.550781 42.34375 -26.65625 C 38.644531 -23.550781 34.5 -19.234375 29.90625 -13.703125 C 27.96875 -11.398438 26.273438 -9.273438 24.828125 -7.328125 C 23.378906 -5.378906 22.15625 -3.617188 21.15625 -2.046875 C 20.351562 -0.816406 19.953125 0.0625 19.953125 0.59375 C 19.953125 0.800781 20.023438 0.945312 20.171875 1.03125 C 20.328125 1.113281 20.40625 1.15625 20.40625 1.15625 C 20.40625 1.1875 20.101562 1.4375 19.5 1.90625 C 18.96875 2.164062 18.367188 2.296875 17.703125 2.296875 C 16.335938 2.296875 15.753906 1.976562 15.953125 1.34375 C 16.421875 -0.15625 17.96875 -2.867188 20.59375 -6.796875 C 24.03125 -11.898438 26.265625 -15.382812 27.296875 -17.25 C 29.535156 -21.28125 30.65625 -24.5 30.65625 -26.90625 C 30.65625 -28.570312 30.21875 -29.753906 29.34375 -30.453125 C 28.476562 -31.148438 27.164062 -31.5 25.40625 -31.5 C 21.5 -31.5 17.460938 -29.816406 13.296875 -26.453125 C 11.492188 -24.984375 9.8125 -23.320312 8.25 -21.46875 C 6.6875 -19.625 5.421875 -17.703125 4.453125 -15.703125 C 3.484375 -13.703125 3 -11.734375 3 -9.796875 C 3 -6.328125 4.632812 -4.59375 7.90625 -4.59375 C 11.738281 -4.59375 14.703125 -5.976562 16.796875 -8.75 C 17.597656 -9.851562 18 -10.882812 18 -11.84375 C 18 -12.414062 17.832031 -12.800781 17.5 -13 C 17.46875 -13.03125 17.453125 -13.082031 17.453125 -13.15625 C 17.453125 -13.28125 17.550781 -13.34375 17.75 -13.34375 C 18.613281 -13.34375 19.046875 -12.78125 19.046875 -11.65625 C 19.046875 -10.945312 18.75 -10.0625 18.15625 -9 C 17.382812 -7.664062 16.234375 -6.53125 14.703125 -5.59375 C 12.765625 -4.394531 10.628906 -3.796875 8.296875 -3.796875 C 6.035156 -3.796875 4.21875 -4.507812 2.84375 -5.9375 C 1.476562 -7.375 0.796875 -9.257812 0.796875 -11.59375 C 0.796875 -16.863281 4.226562 -22.25 11.09375 -27.75 C 12.363281 -28.75 13.875 -29.609375 15.625 -30.328125 C 17.375 -31.046875 19.179688 -31.59375 21.046875 -31.96875 C 22.910156 -32.351562 24.628906 -32.546875 26.203125 -32.546875 C 28.460938 -32.546875 30.1875 -32.171875 31.375 -31.421875 C 32.5625 -30.671875 33.15625 -29.363281 33.15625 -27.5 C 33.15625 -25.164062 32.203125 -22.015625 30.296875 -18.046875 C 29.703125 -16.816406 28.351562 -14.566406 26.25 -11.296875 L 30.09375 -16.203125 C 31.0625 -17.460938 32.363281 -18.957031 34 -20.6875 C 35.632812 -22.425781 37.566406 -24.394531 39.796875 -26.59375 C 40.765625 -27.53125 41.863281 -28.332031 43.09375 -29 C 44.332031 -29.664062 45.382812 -30 46.25 -30 C 47.445312 -30 48.046875 -29.363281 48.046875 -28.09375 C 48.046875 -27 47.597656 -25.5 46.703125 -23.59375 C 45.503906 -21.0625 44.003906 -18.113281 42.203125 -14.75 C 41.628906 -13.71875 41.242188 -12.832031 41.046875 -12.09375 C 40.847656 -11.363281 40.71875 -10.945312 40.65625 -10.84375 C 40.78125 -11.007812 41.101562 -11.398438 41.625 -12.015625 C 42.144531 -12.640625 42.867188 -13.484375 43.796875 -14.546875 C 44.929688 -15.816406 46.28125 -17.207031 47.84375 -18.71875 C 49.414062 -20.238281 51.21875 -21.863281 53.25 -23.59375 L 61.25 -30.203125 C 61.882812 -30.734375 62.453125 -31 62.953125 -31 C 63.421875 -31 63.757812 -30.722656 63.96875 -30.171875 C 64.1875 -29.617188 64.414062 -28.910156 64.65625 -28.046875 C 64.820312 -27.484375 64.019531 -26.300781 62.25 -24.5 C 58.082031 -20.226562 54.484375 -15.460938 51.453125 -10.203125 C 48.679688 -5.335938 47.296875 -1.820312 47.296875 0.34375 C 47.296875 1.3125 47.613281 1.796875 48.25 1.796875 C 48.644531 1.796875 49.644531 1.445312 51.25 0.75 C 52.644531 0.113281 53.5625 -0.25 54 -0.34375 C 54.164062 -0.28125 54.25 -0.195312 54.25 -0.09375 C 54.25 0.40625 53.363281 1.101562 51.59375 2 C 49.863281 2.894531 48.414062 3.34375 47.25 3.34375 Z M 47.25 3.34375 "/></g></g><g style="fill:#f4c5cc;fill-opacity:1;"><g transform="translate(266.761041, 233.294046)"><path style="stroke:none" d="M 1.15625 10.25 C 0.0820312 10.25 -0.851562 9.800781 -1.65625 8.90625 C -2.445312 7.96875 -2.828125 6.929688 -2.796875 5.796875 C -2.398438 6.296875 -1.867188 6.878906 -1.203125 7.546875 C -0.335938 8.378906 0.507812 8.796875 1.34375 8.796875 C 3.25 8.796875 5.300781 7.28125 7.5 4.25 C 8.269531 3.1875 9.0625 1.945312 9.875 0.53125 C 10.6875 -0.882812 11.460938 -2.460938 12.203125 -4.203125 L 14.09375 -8.796875 L 6.75 -3.046875 C 4.476562 -1.285156 2.660156 -0.40625 1.296875 -0.40625 C 0.566406 -0.40625 -0.0078125 -0.671875 -0.4375 -1.203125 C -0.875 -1.734375 -1.09375 -2.28125 -1.09375 -2.84375 C -1.09375 -4.28125 0.132812 -6.632812 2.59375 -9.90625 C 5.0625 -13.195312 6.914062 -14.84375 8.15625 -14.84375 C 9.1875 -14.84375 9.703125 -14.460938 9.703125 -13.703125 C 9.703125 -13.398438 8.21875 -11.664062 5.25 -8.5 C 2.3125 -5.363281 0.84375 -3.25 0.84375 -2.15625 C 0.84375 -1.71875 1.128906 -1.5 1.703125 -1.5 C 2.765625 -1.5 5.082031 -2.882812 8.65625 -5.65625 C 10.113281 -6.820312 11.410156 -7.882812 12.546875 -8.84375 C 13.679688 -9.8125 14.632812 -10.679688 15.40625 -11.453125 C 15.664062 -11.785156 15.925781 -12.109375 16.1875 -12.421875 C 16.457031 -12.742188 16.710938 -13.070312 16.953125 -13.40625 C 17.585938 -14.132812 18.21875 -14.5 18.84375 -14.5 C 19.75 -14.5 20.203125 -14.132812 20.203125 -13.40625 C 20.203125 -13.269531 19.5 -12.164062 18.09375 -10.09375 C 17.363281 -8.96875 16.78125 -8.09375 16.34375 -7.46875 C 15.914062 -6.851562 15.664062 -6.460938 15.59375 -6.296875 C 14.5625 -4.296875 12.976562 -1.378906 10.84375 2.453125 C 7.613281 7.648438 4.382812 10.25 1.15625 10.25 Z M 1.15625 10.25 "/></g></g><g style="fill:#f4c5cc;fill-opacity:1;"><g transform="translate(285.258182, 233.294046)"><path style="stroke:none" d="M 25.453125 7.703125 C 25.179688 7.703125 25.046875 7.484375 25.046875 7.046875 C 25.046875 6.453125 25.285156 5.59375 25.765625 4.46875 C 26.253906 3.351562 26.945312 1.960938 27.84375 0.296875 L 31.34375 -6.25 C 29.21875 -4.414062 26.585938 -2.765625 23.453125 -1.296875 C 21.453125 -0.328125 19.332031 0.453125 17.09375 1.046875 C 14.863281 1.648438 12.71875 1.953125 10.65625 1.953125 C 7.050781 1.953125 4.25 1.117188 2.25 -0.546875 C 0.25 -2.210938 -0.75 -4.414062 -0.75 -7.15625 C -0.75 -12.25 2.332031 -17.429688 8.5 -22.703125 C 10 -23.960938 11.695312 -25.160156 13.59375 -26.296875 C 15.5 -27.429688 17.5 -28.421875 19.59375 -29.265625 C 21.695312 -30.117188 23.796875 -30.785156 25.890625 -31.265625 C 27.992188 -31.753906 29.976562 -32 31.84375 -32 C 33.414062 -32 34.890625 -31.78125 36.265625 -31.34375 C 37.648438 -30.914062 38.785156 -30.289062 39.671875 -29.46875 C 40.554688 -28.65625 41 -27.648438 41 -26.453125 C 41 -25.453125 40.664062 -24.46875 40 -23.5 C 39.332031 -22.53125 38.472656 -21.660156 37.421875 -20.890625 C 36.367188 -20.128906 35.234375 -19.515625 34.015625 -19.046875 C 32.804688 -18.578125 31.632812 -18.34375 30.5 -18.34375 C 27.46875 -18.34375 25.914062 -19.976562 25.84375 -23.25 C 25.78125 -24.914062 26.066406 -25.75 26.703125 -25.75 C 27.265625 -25.75 27.476562 -25.03125 27.34375 -23.59375 C 27.007812 -20.863281 28.160156 -19.5 30.796875 -19.5 C 31.703125 -19.5 32.671875 -19.664062 33.703125 -20 C 34.734375 -20.332031 35.691406 -20.796875 36.578125 -21.390625 C 37.460938 -21.992188 38.1875 -22.660156 38.75 -23.390625 C 39.3125 -24.128906 39.59375 -24.898438 39.59375 -25.703125 C 39.59375 -26.703125 39.234375 -27.507812 38.515625 -28.125 C 37.804688 -28.738281 36.890625 -29.195312 35.765625 -29.5 C 34.648438 -29.800781 33.460938 -29.953125 32.203125 -29.953125 C 29.503906 -29.953125 26.785156 -29.523438 24.046875 -28.671875 C 21.316406 -27.828125 18.679688 -26.644531 16.140625 -25.125 C 13.609375 -23.601562 11.3125 -21.84375 9.25 -19.84375 C 4.476562 -15.175781 2.09375 -10.894531 2.09375 -7 C 2.09375 -4.664062 2.96875 -2.804688 4.71875 -1.421875 C 6.46875 -0.0351562 8.757812 0.65625 11.59375 0.65625 C 13.863281 0.65625 16.179688 0.222656 18.546875 -0.640625 C 20.910156 -1.515625 23.160156 -2.566406 25.296875 -3.796875 C 29.628906 -6.234375 32.878906 -8.816406 35.046875 -11.546875 L 36.5 -13.703125 C 36.0625 -13.703125 35.21875 -13.648438 33.96875 -13.546875 C 32.71875 -13.453125 31.03125 -13.320312 28.90625 -13.15625 C 26.664062 -12.988281 24.90625 -12.828125 23.625 -12.671875 C 22.34375 -12.523438 21.535156 -12.414062 21.203125 -12.34375 C 20.796875 -12.25 20.394531 -12.203125 20 -12.203125 C 18.894531 -12.203125 18.34375 -12.46875 18.34375 -13 C 18.34375 -13.832031 19.8125 -14.566406 22.75 -15.203125 C 23.78125 -15.429688 25.378906 -15.601562 27.546875 -15.71875 C 29.710938 -15.84375 32.445312 -15.90625 35.75 -15.90625 C 41.28125 -15.90625 45.015625 -15.671875 46.953125 -15.203125 C 47.253906 -15.171875 47.40625 -15.085938 47.40625 -14.953125 C 47.40625 -14.617188 46.253906 -14.351562 43.953125 -14.15625 L 41.5 -13.953125 C 40.5625 -13.847656 39.910156 -13.796875 39.546875 -13.796875 C 36.148438 -9.367188 31.75 -2.46875 26.34375 6.90625 C 26.050781 7.4375 25.753906 7.703125 25.453125 7.703125 Z M 25.453125 7.703125 "/></g></g><g style="fill:#f4c5cc;fill-opacity:1;"><g transform="translate(326.65178, 233.294046)"><path style="stroke:none" d="M 11.046875 -17.203125 C 10.484375 -17.203125 9.992188 -17.382812 9.578125 -17.75 C 9.160156 -18.113281 8.953125 -18.53125 8.953125 -19 C 8.953125 -19.9375 9.582031 -20.40625 10.84375 -20.40625 C 11.3125 -20.40625 11.78125 -20.242188 12.25 -19.921875 C 12.71875 -19.609375 12.953125 -19.21875 12.953125 -18.75 C 12.953125 -18.351562 12.734375 -17.992188 12.296875 -17.671875 C 11.867188 -17.359375 11.453125 -17.203125 11.046875 -17.203125 Z M 1.796875 0.546875 C 1.066406 0.546875 0.460938 0.304688 -0.015625 -0.171875 C -0.503906 -0.660156 -0.75 -1.519531 -0.75 -2.75 C -0.75 -3.445312 -0.585938 -4.253906 -0.265625 -5.171875 C 0.046875 -6.085938 0.441406 -7.007812 0.921875 -7.9375 C 1.410156 -8.875 1.882812 -9.710938 2.34375 -10.453125 C 4.21875 -13.484375 5.753906 -15.015625 6.953125 -15.046875 C 7.253906 -15.046875 7.617188 -14.921875 8.046875 -14.671875 C 8.484375 -14.421875 8.703125 -14.144531 8.703125 -13.84375 C 8.703125 -13.84375 7.4375 -12.210938 4.90625 -8.953125 C 2.40625 -5.710938 1.15625 -3.410156 1.15625 -2.046875 C 1.15625 -0.984375 1.570312 -0.453125 2.40625 -0.453125 C 2.9375 -0.453125 3.625 -0.675781 4.46875 -1.125 C 5.320312 -1.570312 6.210938 -2.144531 7.140625 -2.84375 C 8.078125 -3.550781 8.96875 -4.300781 9.8125 -5.09375 C 10.664062 -5.894531 11.363281 -6.628906 11.90625 -7.296875 C 12.238281 -7.734375 12.53125 -8.035156 12.78125 -8.203125 C 13.03125 -8.367188 13.1875 -8.453125 13.25 -8.453125 C 13.382812 -8.453125 13.453125 -8.351562 13.453125 -8.15625 C 13.453125 -7.988281 13.257812 -7.65625 12.875 -7.15625 C 12.488281 -6.65625 11.960938 -6.070312 11.296875 -5.40625 C 10.492188 -4.601562 9.609375 -3.734375 8.640625 -2.796875 C 7.679688 -1.867188 6.632812 -1.078125 5.5 -0.421875 C 4.363281 0.222656 3.128906 0.546875 1.796875 0.546875 Z M 1.796875 0.546875 "/></g></g><g style="fill:#f4c5cc;fill-opacity:1;"><g transform="translate(337.950028, 233.294046)"><path style="stroke:none" d="M 10.203125 0.25 C 8.765625 0.25 7.78125 -0.125 7.25 -0.875 C 6.71875 -1.625 6.453125 -2.632812 6.453125 -3.90625 C 6.453125 -5.300781 6.882812 -6.96875 7.75 -8.90625 C 8.082031 -9.664062 8.429688 -10.351562 8.796875 -10.96875 C 9.160156 -11.59375 9.546875 -12.171875 9.953125 -12.703125 C 9.816406 -12.671875 9.695312 -12.65625 9.59375 -12.65625 C 9.5 -12.65625 9.398438 -12.65625 9.296875 -12.65625 C 8.492188 -12.65625 7.828125 -13.21875 7.296875 -14.34375 L 3.59375 -9.546875 C 1.632812 -6.984375 0.4375 -5.703125 0 -5.703125 C -0.164062 -5.703125 -0.25 -5.769531 -0.25 -5.90625 C -0.25 -6.070312 -0.164062 -6.285156 0 -6.546875 C 0.101562 -6.742188 0.300781 -7.007812 0.59375 -7.34375 C 1.863281 -8.8125 3.03125 -10.257812 4.09375 -11.6875 C 5.164062 -13.125 6.050781 -14.53125 6.75 -15.90625 C 7.519531 -18.800781 8.488281 -20.25 9.65625 -20.25 C 10.414062 -20.25 10.796875 -19.898438 10.796875 -19.203125 C 10.796875 -18.566406 10.378906 -17.734375 9.546875 -16.703125 C 8.742188 -15.671875 8.34375 -15.132812 8.34375 -15.09375 C 8.34375 -14.394531 8.863281 -14.046875 9.90625 -14.046875 C 10.5 -14.046875 11.164062 -14.265625 11.90625 -14.703125 L 13.203125 -15.5 C 13.265625 -15.53125 13.363281 -15.546875 13.5 -15.546875 C 13.894531 -15.546875 14.242188 -15.378906 14.546875 -15.046875 C 14.847656 -14.710938 14.945312 -14.414062 14.84375 -14.15625 L 11.40625 -9.796875 C 9.269531 -7.066406 8.203125 -4.867188 8.203125 -3.203125 C 8.203125 -1.703125 8.9375 -0.953125 10.40625 -0.953125 C 11.40625 -0.953125 12.476562 -1.25 13.625 -1.84375 C 14.769531 -2.445312 15.882812 -3.191406 16.96875 -4.078125 C 18.050781 -4.960938 18.960938 -5.820312 19.703125 -6.65625 L 20.90625 -8.046875 C 20.96875 -8.117188 21.046875 -8.203125 21.140625 -8.296875 C 21.242188 -8.398438 21.332031 -8.453125 21.40625 -8.453125 C 21.632812 -8.453125 21.75 -8.332031 21.75 -8.09375 C 21.75 -8.03125 21.710938 -7.914062 21.640625 -7.75 C 21.578125 -7.582031 21.460938 -7.398438 21.296875 -7.203125 L 19.703125 -5.40625 C 18.929688 -4.53125 17.988281 -3.648438 16.875 -2.765625 C 15.757812 -1.890625 14.609375 -1.164062 13.421875 -0.59375 C 12.242188 -0.03125 11.171875 0.25 10.203125 0.25 Z M 10.203125 0.25 "/></g></g><g style="fill:#f4c5cc;fill-opacity:1;"><g transform="translate(357.646956, 233.294046)"><path style="stroke:none" d="M 3.796875 0.09375 C 2.828125 0.09375 1.925781 -0.144531 1.09375 -0.625 C 0.257812 -1.101562 -0.15625 -1.910156 -0.15625 -3.046875 C -0.15625 -4.617188 0.398438 -6.488281 1.515625 -8.65625 C 2.640625 -10.820312 3.914062 -13.070312 5.34375 -15.40625 C 9.25 -21.738281 12.019531 -24.90625 13.65625 -24.90625 C 13.988281 -24.90625 14.328125 -24.78125 14.671875 -24.53125 C 15.023438 -24.28125 15.21875 -24.003906 15.25 -23.703125 L 11.75 -19 C 10.382812 -17.164062 9.148438 -15.472656 8.046875 -13.921875 C 6.953125 -12.367188 6.003906 -10.976562 5.203125 -9.75 C 4.796875 -9.113281 4.34375 -8.394531 3.84375 -7.59375 C 3.34375 -6.800781 2.898438 -5.976562 2.515625 -5.125 C 2.140625 -4.269531 1.953125 -3.410156 1.953125 -2.546875 C 1.953125 -2.148438 2.066406 -1.789062 2.296875 -1.46875 C 2.535156 -1.15625 2.953125 -1 3.546875 -1 C 4.617188 -1 6.019531 -1.570312 7.75 -2.71875 C 9.476562 -3.875 11.195312 -5.46875 12.90625 -7.5 C 13.070312 -7.695312 13.253906 -7.878906 13.453125 -8.046875 C 13.648438 -8.210938 13.816406 -8.296875 13.953125 -8.296875 C 14.117188 -8.296875 14.203125 -8.195312 14.203125 -8 C 14.203125 -7.894531 14.09375 -7.703125 13.875 -7.421875 C 13.65625 -7.140625 13.476562 -6.914062 13.34375 -6.75 L 12.15625 -5.40625 C 11.488281 -4.664062 10.695312 -3.863281 9.78125 -3 C 8.863281 -2.132812 7.894531 -1.398438 6.875 -0.796875 C 5.851562 -0.203125 4.828125 0.09375 3.796875 0.09375 Z M 3.796875 0.09375 "/></g></g></g></svg>