<svg xmlns="http://www.w3.org/2000/svg" xmlns:xlink="http://www.w3.org/1999/xlink" width="500" zoomAndPan="magnify" viewBox="0 0 375 374.999991" height="500" preserveAspectRatio="xMidYMid meet" version="1.2"><defs><clipPath id="2e1afaed97"><path d="M 66.804688 8.550781 L 308 8.550781 L 308 287 L 66.804688 287 Z M 66.804688 8.550781 "/></clipPath></defs><g id="6fce917c24"><g clip-rule="nonzero" clip-path="url(#2e1afaed97)"><path style=" stroke:none;fill-rule:nonzero;fill:#f4c5cc;fill-opacity:1;" d="M 117.832031 72.269531 L 118.015625 70.6875 C 118.214844 66.683594 116.175781 62.476562 113.457031 59.59375 C 107.488281 53.269531 98.957031 50.585938 90.378906 50.230469 C 82.257812 50.445312 74.570312 52.457031 67.558594 56.539062 C 81.984375 55.386719 86.632812 72.175781 97.667969 77.609375 C 101.703125 79.605469 106.292969 80.265625 110.636719 78.835938 C 112.691406 78.164062 114.273438 76.949219 115.238281 75.0625 L 115.300781 74.496094 C 114.808594 73.820312 113.445312 73.3125 112.660156 72.929688 C 107.488281 70.414062 101.871094 68.695312 96.515625 66.53125 L 96.515625 66.40625 C 103.574219 68.308594 111.035156 69.597656 117.832031 72.269531 Z M 68.460938 84.007812 C 66.851562 89.226562 66.914062 95.550781 66.867188 100.308594 C 66.789062 108.347656 67.558594 116.328125 69.875 124.078125 C 74.585938 139.902344 85.238281 154.171875 99.707031 163.042969 C 101.503906 164.148438 103.359375 165.191406 105.265625 166.097656 C 106.0625 166.480469 108.671875 167.140625 108.945312 168.09375 C 109.269531 169.152344 107.210938 171.46875 106.753906 172.4375 C 105.753906 174.523438 104.910156 176.6875 104.144531 178.882812 C 101.410156 186.800781 100.046875 195.148438 100.308594 203.511719 C 100.796875 219.304688 107.304688 234.023438 117.894531 245.960938 C 123.386719 252.160156 129.832031 257.59375 136.894531 262.105469 C 141.191406 264.851562 145.71875 267.230469 150.429688 269.257812 C 152.792969 270.269531 155.214844 271.175781 157.625 272.113281 C 159.699219 272.910156 162.261719 274.367188 164.53125 274.335938 C 163.824219 273.261719 162.03125 272.710938 160.894531 272.097656 C 159.484375 271.3125 158.117188 270.4375 156.796875 269.519531 C 153.867188 267.476562 151.089844 265.238281 148.527344 262.796875 C 144.042969 258.546875 140.160156 253.648438 137.429688 248.1875 C 131.613281 236.570312 131.9375 222.863281 138.78125 211.722656 C 144.875 201.792969 154.910156 195.058594 163.488281 187.292969 C 172.664062 178.988281 180.707031 169.367188 185.773438 158.195312 C 188.964844 151.152344 191.128906 143.675781 192.386719 136.109375 C 192.984375 132.457031 193.367188 128.773438 193.550781 125.09375 C 193.628906 123.34375 193.691406 121.578125 193.675781 119.8125 C 193.660156 117.972656 193.136719 115.824219 193.660156 114.027344 C 194.550781 115.484375 194.609375 117.664062 194.886719 119.304688 C 195.164062 120.949219 195.5 122.605469 195.761719 124.246094 C 196.375 128.160156 196.605469 132.105469 196.5 136.066406 C 196.300781 143.617188 194.871094 151.121094 192.324219 158.269531 C 187.503906 171.777344 178.667969 183.070312 167.769531 192.617188 C 157.886719 201.273438 145.242188 208.195312 140.992188 221.175781 C 138.902344 227.578125 138.949219 234.710938 141.820312 240.882812 C 144.6875 247.050781 149.707031 251.332031 155.507812 254.433594 C 169.027344 261.628906 184.453125 260.496094 199.339844 260.386719 C 214.222656 260.28125 230.015625 263.089844 241.050781 273.785156 C 243.460938 276.117188 245.5625 278.710938 247.386719 281.488281 C 248.261719 282.824219 248.90625 284.203125 249.675781 285.585938 C 250.75 287.535156 251.683594 286.308594 252.835938 285.019531 C 257.886719 279.371094 262.949219 273.753906 267.570312 267.769531 C 276.652344 255.996094 284.234375 242.847656 286.953125 228.265625 C 288.441406 220.300781 288.441406 211.984375 286.167969 204.15625 C 283.898438 196.332031 279.417969 190.175781 273.875 184.515625 C 268.335938 178.851562 261.84375 173.785156 255.921875 168.324219 C 252.914062 165.546875 250.011719 162.660156 247.433594 159.515625 C 246.328125 158.179688 245.238281 156.8125 244.210938 155.433594 C 243.261719 154.171875 241.527344 152.195312 241.570312 150.550781 C 243.089844 151.71875 244.074219 153.683594 245.300781 155.125 C 246.898438 157.011719 248.691406 158.746094 250.566406 160.375 C 254.1875 163.519531 258.191406 166.25 262.199219 168.90625 C 270.039062 174.109375 277.925781 179.371094 284.433594 186.15625 C 290.328125 192.308594 294.902344 199.675781 296.894531 207.886719 C 299.074219 216.863281 298.308594 226.457031 295.007812 235.097656 C 293.273438 239.636719 290.863281 243.933594 287.933594 247.878906 C 286.292969 250.089844 284.496094 252.222656 282.515625 254.15625 C 280.933594 255.707031 278.15625 257.070312 277.144531 259.003906 C 279.15625 258.945312 281.59375 256.6875 283.191406 255.628906 C 285.632812 254.003906 287.980469 252.253906 290.160156 250.304688 C 294.042969 246.835938 297.449219 242.832031 300.117188 238.425781 C 305.734375 229.21875 308.097656 218.292969 307.195312 207.671875 C 306.289062 197.050781 302.066406 186.921875 294.945312 178.835938 C 287.824219 170.746094 278.328125 165.023438 268.859375 159.773438 C 263.132812 156.597656 257.253906 153.589844 251.945312 149.769531 C 249.628906 148.097656 247.417969 146.269531 245.4375 144.230469 C 244.441406 143.1875 243.503906 142.082031 242.601562 140.976562 C 242.046875 140.300781 240.542969 138.933594 240.820312 138 C 242.308594 137.785156 244.179688 138.71875 245.59375 139.101562 C 246.925781 139.472656 248.277344 139.671875 249.660156 139.746094 C 252.605469 139.917969 255.78125 139.746094 258.53125 138.613281 C 260.832031 137.660156 262.640625 136.019531 263.59375 133.761719 C 264.132812 132.488281 264.375 131.109375 264.390625 129.726562 C 264.421875 128.007812 263.886719 126.195312 264.390625 124.492188 C 265.082031 122.222656 267.890625 120.6875 267.382812 118.046875 C 267.214844 117.113281 266.109375 116.667969 265.941406 115.945312 C 265.726562 115.039062 267.707031 113.8125 268.199219 113.046875 C 268.796875 112.125 269.210938 110.988281 268.671875 109.945312 C 268.273438 109.164062 267.382812 108.777344 266.832031 108.117188 C 265.433594 106.398438 267.015625 104.957031 268.488281 103.929688 C 269.960938 102.902344 271.605469 102.117188 272.878906 100.8125 C 273.691406 99.984375 274.519531 99.003906 274.703125 97.851562 C 274.964844 96.226562 273.890625 95.335938 272.785156 94.308594 C 271.128906 92.742188 269.441406 90.929688 268.074219 89.105469 C 267.355469 88.136719 267.507812 87.585938 267.96875 86.527344 C 268.71875 84.777344 269.488281 83.042969 270.222656 81.277344 C 272.695312 75.308594 274.890625 69.09375 274.875 62.585938 C 274.875 56.429688 273.15625 50.371094 270.378906 44.859375 C 265.234375 34.6875 256.488281 26.351562 246.699219 20.261719 C 236.246094 13.707031 223.417969 9.117188 210.878906 8.734375 C 204.984375 8.550781 198.769531 9.300781 192.953125 10.253906 C 187.503906 11.144531 182.148438 12.511719 176.992188 14.414062 C 166.375 18.355469 156.765625 24.679688 149.492188 33.152344 C 140.605469 43.511719 135.605469 56.570312 133.714844 69.769531 C 132.609375 77.410156 132.796875 85.128906 132.242188 92.804688 C 131.996094 96.164062 131.476562 99.449219 130.675781 102.730469 C 130.292969 104.34375 129.511719 108.960938 127.53125 109.515625 C 127.054688 108.164062 127.914062 106.277344 128.144531 104.925781 C 128.5 102.855469 128.636719 100.753906 128.621094 98.664062 C 128.589844 94.722656 128.085938 90.714844 126.980469 86.910156 C 126.179688 84.164062 125 81.429688 123.265625 79.097656 C 121.960938 77.347656 119.121094 74.324219 116.574219 74.570312 C 117.050781 75.476562 118.277344 75.984375 119.03125 76.6875 C 119.949219 77.53125 120.671875 78.59375 121.332031 79.636719 C 123.003906 82.273438 124.171875 85.207031 124.90625 88.214844 C 126.441406 94.492188 125.980469 100.707031 124.847656 107 C 124.539062 108.6875 124.769531 110.941406 122.710938 111.371094 C 119.78125 112 116.34375 111.726562 113.398438 111.339844 C 110.265625 110.925781 107.167969 110.128906 104.25 108.949219 C 102.960938 108.425781 101.65625 107.859375 100.460938 107.152344 C 99.371094 106.523438 98.25 105.265625 96.992188 105.035156 C 97.558594 107 99.984375 108.808594 101.609375 110.007812 C 103.667969 111.511719 105.9375 112.738281 108.316406 113.675781 C 113.964844 115.898438 120.242188 116.296875 126.257812 115.777344 C 138.488281 114.703125 150.183594 109.820312 160.941406 104.375 C 183.085938 93.140625 202.117188 77.394531 221.070312 61.863281 C 226.410156 57.476562 231.703125 53.195312 236.214844 47.976562 C 238.363281 45.488281 240.375 42.878906 241.910156 39.996094 C 242.601562 38.675781 243.230469 37.308594 243.550781 35.867188 C 243.90625 34.285156 243.472656 32.828125 243.703125 31.277344 C 245.007812 34.117188 244.027344 37.910156 242.953125 40.671875 C 241.664062 44 239.667969 47.054688 237.582031 49.972656 C 233.007812 56.324219 227.515625 61.878906 221.742188 67.234375 C 209.527344 78.5625 197.082031 89.824219 183.207031 99.277344 C 170.195312 108.132812 155.890625 115.515625 140.453125 119.550781 C 125.996094 123.328125 109.914062 124.171875 96.238281 117.433594 C 88.980469 113.859375 82.703125 108.347656 78.484375 101.613281 C 76.226562 98.035156 74.554688 94.121094 73.464844 90.085938 C 72.929688 88.078125 72.53125 86.019531 72.269531 83.964844 C 72.023438 81.96875 72.207031 79.972656 71.578125 78.117188 C 70.136719 79.742188 69.152344 81.769531 68.460938 83.992188 Z M 200.734375 17.082031 C 196.945312 17.527344 193.308594 18.171875 189.667969 19.355469 C 180.601562 22.316406 172.40625 28.332031 166.527344 35.636719 C 155.832031 48.925781 151.242188 66.269531 153.296875 82.996094 C 154.035156 89.027344 155.644531 94.707031 157.425781 100.492188 C 154.542969 95.824219 152.054688 90.871094 150.351562 85.667969 C 148.125 78.882812 147.34375 71.363281 147.679688 64.257812 L 148.066406 60.191406 C 148.15625 59.484375 148.496094 58.441406 148.417969 57.78125 C 146.652344 60.328125 145.347656 63.199219 144.167969 66.039062 C 142.21875 70.6875 140.574219 75.613281 139.546875 80.542969 C 139.027344 82.996094 138.734375 85.46875 138.398438 87.953125 C 137.921875 86.894531 138.257812 84.453125 138.289062 83.257812 C 138.613281 72.792969 140.835938 62.632812 144.796875 52.886719 C 146.132812 49.617188 147.621094 46.441406 149.523438 43.433594 C 155.738281 33.65625 165.175781 26.136719 175.964844 21.578125 C 183.667969 18.328125 192.324219 16.421875 200.71875 17.082031 Z M 200.949219 157.179688 C 201.394531 156.078125 201.808594 154.957031 202.207031 153.851562 C 205.308594 145.210938 206.582031 136.339844 205.84375 127.210938 C 205.460938 122.558594 204.601562 117.988281 203.972656 113.382812 C 203.679688 111.21875 203.433594 109.039062 203.328125 106.859375 C 203.21875 104.679688 202.898438 101.871094 203.574219 99.753906 C 204.09375 100.152344 204.371094 101.398438 204.632812 101.996094 C 204.96875 102.761719 205.292969 103.53125 205.707031 104.265625 C 206.535156 105.785156 207.65625 107.152344 209.25 107.980469 C 213.164062 110.035156 217.875 108.457031 220.945312 105.726562 C 224.015625 102.992188 225.609375 98.527344 224.230469 94.523438 C 223.617188 92.726562 222.433594 91.085938 220.625 90.253906 C 219.472656 89.71875 216.742188 89.089844 216.082031 90.625 C 217.386719 90.808594 218.382812 90.5625 219.550781 91.34375 C 220.53125 92.003906 221.207031 93.0625 221.46875 94.183594 C 222.035156 96.699219 220.53125 99.21875 218.183594 100.292969 C 215.835938 101.367188 212.980469 101.074219 211.199219 99.234375 C 209.421875 97.390625 209.390625 94.859375 209.804688 92.617188 C 210.402344 89.519531 212.136719 86.664062 213.933594 84.070312 C 216.003906 81.09375 218.304688 78.238281 220.714844 75.507812 C 225.640625 69.890625 231.058594 64.71875 236.15625 59.253906 C 239.007812 56.1875 241.800781 53.039062 244.347656 49.726562 C 245.515625 48.207031 246.621094 46.640625 247.601562 45 C 249.445312 41.898438 249.734375 38.230469 252.667969 42.851562 C 253.527344 44.199219 254.449219 45.503906 255.292969 46.855469 C 257.179688 49.878906 258.914062 53.070312 260.035156 56.429688 C 261.152344 59.792969 261.230469 62.984375 260.738281 66.390625 C 260.25 69.796875 259.40625 72.914062 259.3125 76.230469 C 259.21875 79.773438 260.292969 82.996094 261.984375 86.113281 C 263.671875 89.226562 265.542969 92.203125 267.96875 94.796875 C 268.671875 95.566406 270.175781 96.425781 270.4375 97.4375 C 270.746094 98.664062 269.210938 99.679688 268.273438 100.183594 C 267.09375 100.828125 261.84375 101.855469 261.953125 103.621094 C 262.902344 103.777344 263.839844 103.40625 264.777344 103.605469 C 264.46875 104.25 263.839844 104.574219 263.671875 105.308594 C 263.472656 106.15625 263.839844 106.828125 264.285156 107.519531 C 264.730469 108.210938 264.992188 108.59375 264.191406 109.117188 C 263.457031 109.621094 262.550781 109.851562 261.796875 110.359375 C 260.203125 111.433594 258.898438 112.859375 257.210938 113.84375 C 256.351562 114.335938 255.507812 114.640625 254.523438 114.765625 C 253.804688 114.855469 252.484375 114.765625 251.976562 115.347656 C 252.191406 116.605469 254.492188 117.816406 255.460938 118.523438 C 256.6875 119.429688 257.855469 120.410156 259.21875 121.117188 C 259.679688 121.363281 260.617188 121.546875 260.96875 121.945312 C 261.660156 122.730469 261.078125 122.957031 260.648438 123.710938 C 259.863281 125.078125 260.003906 126.625 260.09375 128.128906 C 260.308594 131.382812 259.28125 133.839844 255.921875 134.992188 C 252.851562 136.035156 249.367188 135.621094 246.253906 134.945312 C 238.625 133.273438 230.796875 130.648438 223.863281 127.164062 C 220.746094 125.597656 217.738281 123.789062 215.054688 121.609375 C 213.75 120.550781 212.582031 119.335938 211.492188 118.078125 C 210.402344 116.820312 209.28125 114.964844 207.855469 113.964844 C 207.808594 115.269531 209.023438 116.988281 209.679688 118.078125 C 210.527344 119.460938 211.414062 120.839844 212.320312 122.175781 C 214.300781 125.121094 216.617188 127.839844 219.164062 130.355469 C 220.332031 131.507812 221.542969 132.597656 222.832031 133.609375 C 223.261719 133.945312 224.644531 134.5625 224.859375 135.113281 C 225.105469 135.773438 224.429688 136.585938 224.121094 137.125 C 222.449219 140.023438 221.359375 143.1875 220.441406 146.378906 C 218.351562 153.574219 217.386719 160.957031 217.96875 168.429688 C 218.445312 174.617188 219.855469 181.660156 225.105469 185.789062 C 229.785156 189.472656 236.167969 190.222656 241.511719 192.664062 C 246.851562 195.101562 251.640625 198.679688 255.445312 203.066406 C 264.191406 213.179688 266.785156 226.730469 265.925781 239.59375 C 265.390625 247.695312 263.515625 255.691406 260.800781 263.378906 C 259.433594 267.230469 257.855469 271.007812 256.195312 274.75 C 255.414062 276.53125 254.585938 278.296875 253.847656 280.09375 C 253.25 281.550781 252.667969 284.019531 251.316406 285.035156 C 250.59375 284.496094 251.039062 282.269531 251.070312 281.488281 C 251.148438 279.707031 250.917969 277.945312 250.625 276.195312 C 249.996094 272.449219 248.875 268.765625 247.3125 265.28125 C 244.425781 258.792969 240.035156 253.035156 234.648438 248.246094 C 223.03125 237.917969 207.871094 232.117188 194.597656 224.125 C 188.105469 220.210938 182.503906 215.4375 178.421875 209.128906 C 176.410156 206.03125 174.953125 202.699219 173.695312 199.277344 C 173.28125 198.15625 172.175781 196.253906 172.835938 195.070312 C 173.125 194.550781 173.769531 194.167969 174.214844 193.796875 C 175.058594 193.125 175.886719 192.417969 176.71875 191.710938 C 187.445312 182.457031 195.714844 170.101562 200.917969 157.121094 Z M 245.625 62.371094 C 246.925781 62.386719 248.246094 62.617188 249.519531 62.890625 C 250.535156 63.105469 251.546875 63.382812 252.527344 63.738281 C 253.359375 64.027344 254.234375 64.367188 254.96875 64.855469 C 256.257812 65.699219 256.625 67.375 256.734375 68.785156 C 256.765625 69.183594 256.917969 70.734375 256.179688 70.566406 C 255.9375 70.503906 255.660156 70.257812 255.460938 70.121094 C 255.136719 69.890625 254.816406 69.691406 254.476562 69.476562 C 252.773438 68.417969 251.023438 67.464844 249.121094 66.761719 C 247.21875 66.054688 245.378906 65.625 243.414062 65.425781 C 242.816406 65.363281 242.199219 65.425781 241.601562 65.457031 C 241.003906 65.484375 240.4375 65.5625 239.867188 65.65625 C 238.777344 65.855469 237.703125 66.144531 236.644531 66.5 C 235.585938 66.851562 234.636719 67.25 233.652344 67.695312 C 233.144531 67.925781 232.640625 68.171875 232.132812 68.433594 C 231.902344 68.554688 231.671875 68.664062 231.441406 68.785156 C 231.199219 68.921875 230.9375 69.09375 230.660156 69.199219 C 230.984375 68.816406 231.457031 68.492188 231.84375 68.1875 C 233.882812 66.574219 236.214844 65.269531 238.59375 64.179688 C 240.390625 63.351562 242.277344 62.675781 244.273438 62.460938 C 244.71875 62.417969 245.148438 62.402344 245.59375 62.402344 Z M 242.9375 74.738281 C 243.859375 74.601562 244.792969 74.585938 245.746094 74.601562 C 245.5 74.664062 245.269531 74.800781 245.039062 74.894531 L 243.535156 75.523438 C 242.785156 75.84375 242.03125 76.167969 241.28125 76.472656 C 239.945312 77.089844 238.625 77.792969 237.273438 78.421875 C 236.585938 78.746094 235.878906 79.050781 235.171875 79.3125 C 234.464844 79.574219 233.714844 79.773438 232.976562 79.988281 C 233.175781 80.050781 233.375 80.203125 233.546875 80.3125 L 234.679688 80.957031 C 235.265625 81.292969 235.847656 81.617188 236.429688 81.953125 C 238.363281 83.121094 240.25 84.394531 242.414062 85.144531 C 243.550781 85.542969 244.71875 85.710938 245.914062 85.820312 C 246.496094 85.867188 247.082031 85.914062 247.664062 86.003906 C 247.957031 86.050781 248.246094 86.113281 248.539062 86.1875 C 248.691406 86.21875 248.832031 86.265625 248.984375 86.3125 C 249.152344 86.355469 249.320312 86.464844 249.492188 86.480469 C 249.566406 86.3125 249.382812 85.914062 249.320312 85.742188 C 249.230469 85.496094 249.074219 85.253906 249 84.992188 C 248.921875 84.730469 249.03125 84.410156 249.089844 84.148438 C 249.152344 83.808594 249.230469 83.488281 249.304688 83.148438 C 249.445312 82.566406 249.582031 82 249.691406 81.414062 C 249.734375 81.171875 249.78125 80.941406 249.859375 80.695312 C 249.890625 80.570312 249.933594 80.449219 249.996094 80.339844 C 250.074219 80.203125 250.105469 80.15625 250.273438 80.15625 C 250.75 80.125 251.210938 80.125 251.667969 79.957031 C 252.128906 79.789062 252.558594 79.511719 252.957031 79.191406 C 253.726562 78.5625 254.355469 77.792969 254.785156 76.902344 C 255.261719 75.953125 255.535156 74.894531 255.675781 73.851562 C 255.507812 74.15625 255.292969 74.449219 255.09375 74.753906 C 254.890625 75.0625 254.691406 75.382812 254.476562 75.691406 C 254.09375 76.230469 253.574219 76.6875 252.929688 76.917969 C 252.589844 77.027344 252.222656 77.101562 251.871094 77.074219 C 251.699219 77.074219 251.515625 77.027344 251.363281 76.964844 C 251.132812 76.875 250.871094 76.796875 250.933594 76.519531 C 251.023438 76.121094 251.253906 75.753906 251.441406 75.382812 C 251.53125 75.199219 251.609375 75.03125 251.699219 74.847656 C 251.746094 74.738281 251.976562 74.339844 251.871094 74.25 C 251.730469 74.125 251.378906 74.417969 251.285156 74.480469 C 251.054688 74.648438 250.796875 74.785156 250.503906 74.738281 C 249.707031 74.617188 249.046875 73.972656 248.324219 73.652344 C 247.464844 73.265625 246.421875 73.144531 245.46875 73.160156 C 243.398438 73.191406 241.402344 73.957031 239.53125 74.753906 C 237.613281 75.628906 235.695312 76.503906 233.777344 77.363281 C 233.5 77.488281 233.160156 77.578125 232.992188 77.824219 C 233.132812 77.886719 233.207031 77.824219 233.347656 77.761719 C 233.621094 77.671875 233.898438 77.578125 234.175781 77.472656 C 234.695312 77.289062 235.21875 77.101562 235.726562 76.917969 C 236.828125 76.519531 237.949219 76.105469 239.070312 75.738281 C 240.191406 75.371094 241.25 75.0625 242.371094 74.847656 C 242.570312 74.800781 242.769531 74.769531 242.96875 74.738281 Z M 243.167969 84.023438 C 242.921875 84.007812 242.628906 83.839844 242.414062 83.75 C 242.183594 83.65625 241.941406 83.550781 241.710938 83.441406 C 241.234375 83.226562 240.820312 82.964844 240.40625 82.660156 C 240.035156 82.382812 239.667969 82.105469 239.347656 81.785156 C 239.175781 81.628906 239.039062 81.445312 238.902344 81.277344 C 238.839844 81.199219 238.703125 81.046875 238.6875 80.957031 C 238.6875 80.601562 240.035156 80.050781 240.3125 79.925781 C 240.527344 79.835938 240.742188 79.742188 240.972656 79.652344 C 241.203125 79.558594 241.554688 79.375 241.785156 79.390625 C 241.894531 79.542969 241.863281 79.867188 241.878906 80.066406 C 241.894531 80.265625 241.925781 80.464844 241.941406 80.664062 C 241.984375 81.046875 242.046875 81.445312 242.140625 81.832031 C 242.230469 82.199219 242.339844 82.550781 242.507812 82.890625 C 242.601562 83.089844 242.691406 83.273438 242.816406 83.472656 C 242.9375 83.671875 243.121094 83.839844 243.183594 84.039062 Z M 246.542969 82.519531 C 246.699219 82.582031 246.773438 82.828125 246.789062 82.964844 C 246.835938 83.335938 246.710938 83.6875 246.40625 83.933594 C 246.097656 84.179688 245.683594 84.238281 245.332031 84.117188 C 244.933594 83.980469 244.609375 83.5625 244.378906 83.242188 C 244.089844 82.828125 243.890625 82.335938 243.78125 81.84375 C 243.660156 81.308594 243.628906 80.726562 243.691406 80.1875 C 243.734375 79.726562 243.859375 78.992188 244.378906 78.820312 C 244.472656 79.050781 244.425781 79.296875 244.425781 79.542969 C 244.425781 79.789062 244.425781 80.050781 244.441406 80.296875 C 244.472656 80.757812 244.578125 81.214844 244.777344 81.644531 C 244.886719 81.859375 245.023438 82.058594 245.179688 82.246094 C 245.347656 82.445312 245.609375 82.519531 245.867188 82.550781 C 245.976562 82.550781 246.097656 82.550781 246.207031 82.550781 C 246.296875 82.550781 246.453125 82.476562 246.542969 82.519531 Z M 246.542969 82.519531 "/></g><g style="fill:#f4c5cc;fill-opacity:1;"><g transform="translate(11.215297, 344.802868)"><path style="stroke:none" d="M 19.234375 4.75 C 13.816406 4.75 9.632812 3.3125 6.6875 0.4375 C 3.738281 -2.4375 2.265625 -6.164062 2.265625 -10.75 C 2.265625 -14.9375 3.300781 -19.03125 5.375 -23.03125 C 7.445312 -27.03125 10.066406 -30.710938 13.234375 -34.078125 C 15.816406 -36.804688 18.773438 -39.171875 22.109375 -41.171875 C 25.453125 -43.171875 28.960938 -44.726562 32.640625 -45.84375 C 36.328125 -46.96875 39.925781 -47.53125 43.4375 -47.53125 C 46.21875 -47.53125 48.726562 -47.148438 50.96875 -46.390625 C 53.207031 -45.640625 54.984375 -44.457031 56.296875 -42.84375 C 57.617188 -41.238281 58.28125 -39.144531 58.28125 -36.5625 C 58.28125 -34.269531 57.726562 -32.132812 56.625 -30.15625 C 55.53125 -28.1875 54.066406 -26.46875 52.234375 -25 C 50.410156 -23.539062 48.398438 -22.394531 46.203125 -21.5625 C 44.015625 -20.738281 41.800781 -20.328125 39.5625 -20.328125 C 36.632812 -20.328125 34.171875 -20.992188 32.171875 -22.328125 C 30.171875 -23.671875 29.171875 -25.367188 29.171875 -27.421875 C 29.171875 -30.054688 30.851562 -32.640625 34.21875 -35.171875 C 34.800781 -35.609375 35.265625 -35.828125 35.609375 -35.828125 C 35.859375 -35.828125 35.984375 -35.726562 35.984375 -35.53125 C 35.984375 -35.050781 35.59375 -34.664062 34.8125 -34.375 C 32.082031 -32.175781 30.71875 -29.957031 30.71875 -27.71875 C 30.71875 -26.101562 31.445312 -24.75 32.90625 -23.65625 C 34.363281 -22.5625 36.191406 -22.015625 38.390625 -22.015625 C 40.335938 -22.015625 42.296875 -22.425781 44.265625 -23.25 C 46.242188 -24.082031 48.0625 -25.203125 49.71875 -26.609375 C 51.382812 -28.023438 52.710938 -29.625 53.703125 -31.40625 C 54.703125 -33.1875 55.203125 -35.050781 55.203125 -37 C 55.203125 -40.164062 54.128906 -42.476562 51.984375 -43.9375 C 49.847656 -45.40625 47.117188 -46.140625 43.796875 -46.140625 C 40.046875 -46.140625 36.328125 -45.429688 32.640625 -44.015625 C 28.960938 -42.609375 25.515625 -40.660156 22.296875 -38.171875 C 19.085938 -35.679688 16.210938 -32.828125 13.671875 -29.609375 C 8.597656 -23.222656 6.0625 -17.226562 6.0625 -11.625 C 6.0625 -8.65625 6.742188 -6.132812 8.109375 -4.0625 C 9.484375 -1.988281 11.375 -0.414062 13.78125 0.65625 C 16.195312 1.726562 18.960938 2.265625 22.078125 2.265625 C 26.710938 2.265625 31.195312 1.253906 35.53125 -0.765625 C 39.875 -2.785156 43.582031 -5.503906 46.65625 -8.921875 C 47.476562 -9.796875 48.085938 -10.234375 48.484375 -10.234375 C 48.773438 -10.234375 48.921875 -10.015625 48.921875 -9.578125 C 48.921875 -8.992188 48.648438 -8.429688 48.109375 -7.890625 C 46.453125 -6.140625 44.476562 -4.507812 42.1875 -3 C 39.894531 -1.488281 37.445312 -0.148438 34.84375 1.015625 C 32.238281 2.191406 29.59375 3.109375 26.90625 3.765625 C 24.226562 4.421875 21.671875 4.75 19.234375 4.75 Z M 19.234375 4.75 "/></g></g><g style="fill:#f4c5cc;fill-opacity:1;"><g transform="translate(64.304092, 344.802868)"><path style="stroke:none" d="M 4.90625 0.359375 C 3.726562 0.359375 2.554688 -0.0507812 1.390625 -0.875 C 0.222656 -1.707031 -0.429688 -2.679688 -0.578125 -3.796875 C -1.066406 -7.554688 1.296875 -12.019531 6.515625 -17.1875 C 11.679688 -22.351562 16.332031 -24.9375 20.46875 -24.9375 C 21.59375 -24.9375 22.472656 -24.664062 23.109375 -24.125 C 23.453125 -23.789062 23.707031 -23.328125 23.875 -22.734375 C 24.039062 -22.148438 24.175781 -21.859375 24.28125 -21.859375 C 24.46875 -21.859375 24.632812 -21.894531 24.78125 -21.96875 C 24.9375 -22.039062 25.109375 -22.078125 25.296875 -22.078125 C 25.878906 -22.078125 26.390625 -21.859375 26.828125 -21.421875 C 27.273438 -20.984375 27.519531 -20.59375 27.5625 -20.25 C 27.613281 -20.15625 26.054688 -17.742188 22.890625 -13.015625 C 19.722656 -8.378906 18.285156 -5.234375 18.578125 -3.578125 C 18.816406 -2.460938 19.351562 -1.90625 20.1875 -1.90625 C 22.71875 -1.90625 27.347656 -6.097656 34.078125 -14.484375 C 34.222656 -14.671875 34.367188 -14.765625 34.515625 -14.765625 C 34.753906 -14.765625 34.875 -14.597656 34.875 -14.265625 C 34.875 -13.867188 34.65625 -13.378906 34.21875 -12.796875 C 28.03125 -4.460938 23.28125 -0.296875 19.96875 -0.296875 C 19.53125 -0.296875 19.113281 -0.367188 18.71875 -0.515625 C 16.570312 -1.335938 15.5 -2.945312 15.5 -5.34375 C 15.5 -6.164062 15.597656 -6.992188 15.796875 -7.828125 L 11.265625 -3.4375 C 9.898438 -2.070312 8.664062 -1.097656 7.5625 -0.515625 C 6.46875 0.0664062 5.582031 0.359375 4.90625 0.359375 Z M 4.234375 -1.25 C 7.066406 -1.25 10.921875 -4.34375 15.796875 -10.53125 L 23.546875 -21.203125 C 23.160156 -21.890625 22.523438 -22.234375 21.640625 -22.234375 C 18.671875 -22.234375 14.648438 -19.84375 9.578125 -15.0625 C 4.316406 -10.1875 1.953125 -6.164062 2.484375 -3 C 2.734375 -1.832031 3.316406 -1.25 4.234375 -1.25 Z M 4.234375 -1.25 "/></g></g><g style="fill:#f4c5cc;fill-opacity:1;"><g transform="translate(94.431612, 344.802868)"><path style="stroke:none" d="M 5.5625 0.140625 C 4.144531 0.140625 2.828125 -0.207031 1.609375 -0.90625 C 0.390625 -1.613281 -0.21875 -2.796875 -0.21875 -4.453125 C -0.21875 -6.742188 0.597656 -9.472656 2.234375 -12.640625 C 3.867188 -15.816406 5.734375 -19.109375 7.828125 -22.515625 C 13.523438 -31.785156 17.570312 -36.421875 19.96875 -36.421875 C 20.445312 -36.421875 20.941406 -36.234375 21.453125 -35.859375 C 21.972656 -35.492188 22.253906 -35.09375 22.296875 -34.65625 L 17.1875 -27.78125 C 15.1875 -25.101562 13.378906 -22.628906 11.765625 -20.359375 C 10.160156 -18.097656 8.773438 -16.066406 7.609375 -14.265625 C 7.023438 -13.335938 6.363281 -12.285156 5.625 -11.109375 C 4.894531 -9.941406 4.25 -8.734375 3.6875 -7.484375 C 3.132812 -6.242188 2.859375 -4.992188 2.859375 -3.734375 C 2.859375 -3.148438 3.023438 -2.625 3.359375 -2.15625 C 3.703125 -1.695312 4.3125 -1.46875 5.1875 -1.46875 C 6.75 -1.46875 8.796875 -2.304688 11.328125 -3.984375 C 13.867188 -5.671875 16.378906 -8 18.859375 -10.96875 C 19.109375 -11.257812 19.378906 -11.523438 19.671875 -11.765625 C 19.960938 -12.015625 20.207031 -12.140625 20.40625 -12.140625 C 20.644531 -12.140625 20.765625 -11.992188 20.765625 -11.703125 C 20.765625 -11.554688 20.601562 -11.273438 20.28125 -10.859375 C 19.96875 -10.441406 19.71875 -10.113281 19.53125 -9.875 L 17.765625 -7.890625 C 16.796875 -6.816406 15.640625 -5.644531 14.296875 -4.375 C 12.953125 -3.113281 11.535156 -2.046875 10.046875 -1.171875 C 8.566406 -0.296875 7.070312 0.140625 5.5625 0.140625 Z M 5.5625 0.140625 "/></g></g><g style="fill:#f4c5cc;fill-opacity:1;"><g transform="translate(112.201001, 344.802868)"><path style="stroke:none" d="M 5.5625 0.140625 C 4.144531 0.140625 2.828125 -0.207031 1.609375 -0.90625 C 0.390625 -1.613281 -0.21875 -2.796875 -0.21875 -4.453125 C -0.21875 -6.742188 0.597656 -9.472656 2.234375 -12.640625 C 3.867188 -15.816406 5.734375 -19.109375 7.828125 -22.515625 C 13.523438 -31.785156 17.570312 -36.421875 19.96875 -36.421875 C 20.445312 -36.421875 20.941406 -36.234375 21.453125 -35.859375 C 21.972656 -35.492188 22.253906 -35.09375 22.296875 -34.65625 L 17.1875 -27.78125 C 15.1875 -25.101562 13.378906 -22.628906 11.765625 -20.359375 C 10.160156 -18.097656 8.773438 -16.066406 7.609375 -14.265625 C 7.023438 -13.335938 6.363281 -12.285156 5.625 -11.109375 C 4.894531 -9.941406 4.25 -8.734375 3.6875 -7.484375 C 3.132812 -6.242188 2.859375 -4.992188 2.859375 -3.734375 C 2.859375 -3.148438 3.023438 -2.625 3.359375 -2.15625 C 3.703125 -1.695312 4.3125 -1.46875 5.1875 -1.46875 C 6.75 -1.46875 8.796875 -2.304688 11.328125 -3.984375 C 13.867188 -5.671875 16.378906 -8 18.859375 -10.96875 C 19.109375 -11.257812 19.378906 -11.523438 19.671875 -11.765625 C 19.960938 -12.015625 20.207031 -12.140625 20.40625 -12.140625 C 20.644531 -12.140625 20.765625 -11.992188 20.765625 -11.703125 C 20.765625 -11.554688 20.601562 -11.273438 20.28125 -10.859375 C 19.96875 -10.441406 19.71875 -10.113281 19.53125 -9.875 L 17.765625 -7.890625 C 16.796875 -6.816406 15.640625 -5.644531 14.296875 -4.375 C 12.953125 -3.113281 11.535156 -2.046875 10.046875 -1.171875 C 8.566406 -0.296875 7.070312 0.140625 5.5625 0.140625 Z M 5.5625 0.140625 "/></g></g><g style="fill:#f4c5cc;fill-opacity:1;"><g transform="translate(129.97039, 344.802868)"><path style="stroke:none" d="M 69.109375 4.90625 C 68.222656 4.90625 67.632812 4.679688 67.34375 4.234375 C 66.46875 2.972656 66.03125 1.441406 66.03125 -0.359375 C 66.03125 -4.554688 68.273438 -10.578125 72.765625 -18.421875 C 75.640625 -23.347656 80.070312 -29.976562 86.0625 -38.3125 C 83.53125 -36.21875 80.773438 -33.804688 77.796875 -31.078125 C 74.828125 -28.347656 71.632812 -25.328125 68.21875 -22.015625 C 63.789062 -17.671875 60.171875 -13.851562 57.359375 -10.5625 C 54.554688 -7.269531 52.546875 -4.550781 51.328125 -2.40625 C 50.066406 -0.113281 48.535156 1.03125 46.734375 1.03125 C 45.898438 1.03125 45.484375 0.734375 45.484375 0.140625 C 45.484375 -0.046875 45.554688 -0.238281 45.703125 -0.4375 C 46.535156 -1.75 47.609375 -3.488281 48.921875 -5.65625 C 50.234375 -7.832031 51.789062 -10.429688 53.59375 -13.453125 C 58.863281 -22.617188 62.644531 -29.90625 64.9375 -35.3125 C 65.757812 -37.363281 66.171875 -38.851562 66.171875 -39.78125 C 66.171875 -40.5625 65.90625 -40.953125 65.375 -40.953125 C 64.644531 -40.953125 63.5 -40.289062 61.9375 -38.96875 C 56.519531 -34.4375 50.453125 -28.125 43.734375 -20.03125 C 40.898438 -16.664062 38.421875 -13.554688 36.296875 -10.703125 C 34.179688 -7.859375 32.394531 -5.289062 30.9375 -3 C 29.757812 -1.195312 29.171875 0.09375 29.171875 0.875 C 29.171875 1.164062 29.28125 1.375 29.5 1.5 C 29.71875 1.625 29.828125 1.6875 29.828125 1.6875 C 29.828125 1.726562 29.390625 2.09375 28.515625 2.78125 C 27.734375 3.164062 26.859375 3.359375 25.890625 3.359375 C 23.890625 3.359375 23.035156 2.894531 23.328125 1.96875 C 24.003906 -0.21875 26.269531 -4.1875 30.125 -9.9375 C 35.144531 -17.40625 38.410156 -22.503906 39.921875 -25.234375 C 43.191406 -31.128906 44.828125 -35.832031 44.828125 -39.34375 C 44.828125 -41.78125 44.191406 -43.507812 42.921875 -44.53125 C 41.648438 -45.550781 39.722656 -46.0625 37.140625 -46.0625 C 31.441406 -46.0625 25.546875 -43.601562 19.453125 -38.6875 C 16.816406 -36.539062 14.351562 -34.113281 12.0625 -31.40625 C 9.769531 -28.695312 7.914062 -25.878906 6.5 -22.953125 C 5.09375 -20.035156 4.390625 -17.160156 4.390625 -14.328125 C 4.390625 -9.265625 6.773438 -6.734375 11.546875 -6.734375 C 17.160156 -6.734375 21.5 -8.753906 24.5625 -12.796875 C 25.738281 -14.398438 26.328125 -15.910156 26.328125 -17.328125 C 26.328125 -18.160156 26.082031 -18.722656 25.59375 -19.015625 C 25.539062 -19.054688 25.515625 -19.128906 25.515625 -19.234375 C 25.515625 -19.429688 25.660156 -19.53125 25.953125 -19.53125 C 27.222656 -19.53125 27.859375 -18.695312 27.859375 -17.03125 C 27.859375 -16.007812 27.421875 -14.71875 26.546875 -13.15625 C 25.421875 -11.207031 23.738281 -9.550781 21.5 -8.1875 C 18.664062 -6.4375 15.546875 -5.5625 12.140625 -5.5625 C 8.828125 -5.5625 6.171875 -6.609375 4.171875 -8.703125 C 2.171875 -10.796875 1.171875 -13.550781 1.171875 -16.96875 C 1.171875 -24.664062 6.191406 -32.535156 16.234375 -40.578125 C 18.085938 -42.046875 20.289062 -43.300781 22.84375 -44.34375 C 25.40625 -45.394531 28.050781 -46.203125 30.78125 -46.765625 C 33.507812 -47.328125 36.019531 -47.609375 38.3125 -47.609375 C 41.632812 -47.609375 44.160156 -47.054688 45.890625 -45.953125 C 47.617188 -44.859375 48.484375 -42.945312 48.484375 -40.21875 C 48.484375 -36.800781 47.09375 -32.191406 44.3125 -26.390625 C 43.4375 -24.585938 41.460938 -21.300781 38.390625 -16.53125 L 44.015625 -23.6875 C 45.429688 -25.539062 47.332031 -27.734375 49.71875 -30.265625 C 52.113281 -32.804688 54.941406 -35.6875 58.203125 -38.90625 C 59.617188 -40.269531 61.226562 -41.4375 63.03125 -42.40625 C 64.832031 -43.382812 66.367188 -43.875 67.640625 -43.875 C 69.390625 -43.875 70.265625 -42.945312 70.265625 -41.09375 C 70.265625 -39.488281 69.609375 -37.296875 68.296875 -34.515625 C 66.546875 -30.804688 64.351562 -26.492188 61.71875 -21.578125 C 60.882812 -20.066406 60.320312 -18.773438 60.03125 -17.703125 C 59.738281 -16.628906 59.546875 -16.019531 59.453125 -15.875 C 59.648438 -16.113281 60.125 -16.679688 60.875 -17.578125 C 61.632812 -18.484375 62.695312 -19.71875 64.0625 -21.28125 C 65.71875 -23.132812 67.691406 -25.171875 69.984375 -27.390625 C 72.273438 -29.609375 74.90625 -31.984375 77.875 -34.515625 L 89.578125 -44.171875 C 90.503906 -44.953125 91.332031 -45.34375 92.0625 -45.34375 C 92.75 -45.34375 93.25 -44.9375 93.5625 -44.125 C 93.875 -43.320312 94.203125 -42.285156 94.546875 -41.015625 C 94.796875 -40.191406 93.628906 -38.460938 91.046875 -35.828125 C 84.953125 -29.585938 79.6875 -22.617188 75.25 -14.921875 C 71.195312 -7.796875 69.171875 -2.648438 69.171875 0.515625 C 69.171875 1.921875 69.632812 2.625 70.5625 2.625 C 71.144531 2.625 72.609375 2.113281 74.953125 1.09375 C 77.003906 0.164062 78.34375 -0.367188 78.96875 -0.515625 C 79.21875 -0.410156 79.34375 -0.285156 79.34375 -0.140625 C 79.34375 0.585938 78.050781 1.609375 75.46875 2.921875 C 72.925781 4.242188 70.804688 4.90625 69.109375 4.90625 Z M 69.109375 4.90625 "/></g></g><g style="fill:#f4c5cc;fill-opacity:1;"><g transform="translate(213.040449, 344.802868)"><path style="stroke:none" d="M 1.6875 14.984375 C 0.125 14.984375 -1.238281 14.328125 -2.40625 13.015625 C -3.582031 11.648438 -4.144531 10.140625 -4.09375 8.484375 C -3.507812 9.210938 -2.726562 10.066406 -1.75 11.046875 C -0.488281 12.265625 0.75 12.875 1.96875 12.875 C 4.75 12.875 7.75 10.65625 10.96875 6.21875 C 12.09375 4.65625 13.25 2.835938 14.4375 0.765625 C 15.632812 -1.304688 16.769531 -3.609375 17.84375 -6.140625 L 20.625 -12.875 L 9.875 -4.453125 C 6.5625 -1.867188 3.90625 -0.578125 1.90625 -0.578125 C 0.832031 -0.578125 -0.0195312 -0.96875 -0.65625 -1.75 C -1.289062 -2.53125 -1.609375 -3.335938 -1.609375 -4.171875 C -1.609375 -6.265625 0.191406 -9.703125 3.796875 -14.484375 C 7.410156 -19.304688 10.117188 -21.71875 11.921875 -21.71875 C 13.429688 -21.71875 14.1875 -21.15625 14.1875 -20.03125 C 14.1875 -19.59375 12.015625 -17.0625 7.671875 -12.4375 C 3.390625 -7.851562 1.25 -4.753906 1.25 -3.140625 C 1.25 -2.503906 1.660156 -2.1875 2.484375 -2.1875 C 4.046875 -2.1875 7.4375 -4.210938 12.65625 -8.265625 C 14.800781 -9.972656 16.703125 -11.53125 18.359375 -12.9375 C 20.015625 -14.351562 21.398438 -15.625 22.515625 -16.75 C 22.910156 -17.238281 23.300781 -17.710938 23.6875 -18.171875 C 24.082031 -18.628906 24.453125 -19.101562 24.796875 -19.59375 C 25.710938 -20.664062 26.632812 -21.203125 27.5625 -21.203125 C 28.882812 -21.203125 29.546875 -20.664062 29.546875 -19.59375 C 29.546875 -19.40625 28.519531 -17.796875 26.46875 -14.765625 C 25.394531 -13.109375 24.539062 -11.828125 23.90625 -10.921875 C 23.28125 -10.023438 22.914062 -9.457031 22.8125 -9.21875 C 21.300781 -6.289062 18.988281 -2.023438 15.875 3.578125 C 11.144531 11.179688 6.414062 14.984375 1.6875 14.984375 Z M 1.6875 14.984375 "/></g></g><g style="fill:#f4c5cc;fill-opacity:1;"><g transform="translate(240.096729, 344.802868)"><path style="stroke:none" d="M 37.21875 11.265625 C 36.832031 11.265625 36.640625 10.945312 36.640625 10.3125 C 36.640625 9.4375 36.988281 8.179688 37.6875 6.546875 C 38.394531 4.910156 39.410156 2.875 40.734375 0.4375 L 45.84375 -9.140625 C 42.726562 -6.460938 38.878906 -4.050781 34.296875 -1.90625 C 31.367188 -0.488281 28.269531 0.65625 25 1.53125 C 21.738281 2.414062 18.597656 2.859375 15.578125 2.859375 C 10.304688 2.859375 6.207031 1.640625 3.28125 -0.796875 C 0.363281 -3.234375 -1.09375 -6.453125 -1.09375 -10.453125 C -1.09375 -17.910156 3.414062 -25.492188 12.4375 -33.203125 C 14.625 -35.054688 17.109375 -36.8125 19.890625 -38.46875 C 22.671875 -40.125 25.59375 -41.570312 28.65625 -42.8125 C 31.726562 -44.050781 34.800781 -45.023438 37.875 -45.734375 C 40.945312 -46.441406 43.847656 -46.796875 46.578125 -46.796875 C 48.867188 -46.796875 51.023438 -46.476562 53.046875 -45.84375 C 55.078125 -45.21875 56.738281 -44.304688 58.03125 -43.109375 C 59.320312 -41.910156 59.96875 -40.4375 59.96875 -38.6875 C 59.96875 -37.21875 59.476562 -35.773438 58.5 -34.359375 C 57.519531 -32.953125 56.265625 -31.6875 54.734375 -30.5625 C 53.203125 -29.445312 51.546875 -28.546875 49.765625 -27.859375 C 47.984375 -27.179688 46.265625 -26.84375 44.609375 -26.84375 C 40.171875 -26.84375 37.90625 -29.226562 37.8125 -34 C 37.707031 -36.4375 38.117188 -37.65625 39.046875 -37.65625 C 39.878906 -37.65625 40.195312 -36.609375 40 -34.515625 C 39.507812 -30.515625 41.191406 -28.515625 45.046875 -28.515625 C 46.359375 -28.515625 47.769531 -28.757812 49.28125 -29.25 C 50.789062 -29.738281 52.191406 -30.421875 53.484375 -31.296875 C 54.773438 -32.171875 55.835938 -33.144531 56.671875 -34.21875 C 57.503906 -35.289062 57.921875 -36.414062 57.921875 -37.59375 C 57.921875 -39.050781 57.394531 -40.226562 56.34375 -41.125 C 55.289062 -42.03125 53.945312 -42.703125 52.3125 -43.140625 C 50.6875 -43.578125 48.945312 -43.796875 47.09375 -43.796875 C 43.144531 -43.796875 39.171875 -43.175781 35.171875 -41.9375 C 31.171875 -40.695312 27.316406 -38.96875 23.609375 -36.75 C 19.910156 -34.53125 16.550781 -31.957031 13.53125 -29.03125 C 6.5625 -22.207031 3.078125 -15.941406 3.078125 -10.234375 C 3.078125 -6.828125 4.351562 -4.109375 6.90625 -2.078125 C 9.46875 -0.0546875 12.820312 0.953125 16.96875 0.953125 C 20.28125 0.953125 23.664062 0.316406 27.125 -0.953125 C 30.59375 -2.222656 33.882812 -3.757812 37 -5.5625 C 43.332031 -9.113281 48.085938 -12.890625 51.265625 -16.890625 L 53.375 -20.03125 C 52.75 -20.03125 51.519531 -19.957031 49.6875 -19.8125 C 47.863281 -19.664062 45.390625 -19.472656 42.265625 -19.234375 C 38.992188 -18.984375 36.421875 -18.75 34.546875 -18.53125 C 32.671875 -18.3125 31.488281 -18.15625 31 -18.0625 C 30.414062 -17.914062 29.832031 -17.84375 29.25 -17.84375 C 27.644531 -17.84375 26.84375 -18.234375 26.84375 -19.015625 C 26.84375 -20.234375 28.984375 -21.304688 33.265625 -22.234375 C 34.773438 -22.566406 37.113281 -22.816406 40.28125 -22.984375 C 43.457031 -23.160156 47.457031 -23.25 52.28125 -23.25 C 60.375 -23.25 65.835938 -22.910156 68.671875 -22.234375 C 69.109375 -22.179688 69.328125 -22.054688 69.328125 -21.859375 C 69.328125 -21.378906 67.644531 -20.988281 64.28125 -20.6875 L 60.6875 -20.40625 C 59.320312 -20.257812 58.375 -20.1875 57.84375 -20.1875 C 52.875 -13.695312 46.4375 -3.601562 38.53125 10.09375 C 38.09375 10.875 37.65625 11.265625 37.21875 11.265625 Z M 37.21875 11.265625 "/></g></g><g style="fill:#f4c5cc;fill-opacity:1;"><g transform="translate(300.644279, 344.802868)"><path style="stroke:none" d="M 16.15625 -25.15625 C 15.332031 -25.15625 14.613281 -25.421875 14 -25.953125 C 13.394531 -26.492188 13.09375 -27.101562 13.09375 -27.78125 C 13.09375 -29.144531 14.019531 -29.828125 15.875 -29.828125 C 16.550781 -29.828125 17.226562 -29.597656 17.90625 -29.140625 C 18.59375 -28.679688 18.9375 -28.109375 18.9375 -27.421875 C 18.9375 -26.835938 18.617188 -26.3125 17.984375 -25.84375 C 17.347656 -25.382812 16.738281 -25.15625 16.15625 -25.15625 Z M 2.625 0.796875 C 1.5625 0.796875 0.675781 0.445312 -0.03125 -0.25 C -0.738281 -0.957031 -1.09375 -2.210938 -1.09375 -4.015625 C -1.09375 -5.046875 -0.859375 -6.226562 -0.390625 -7.5625 C 0.0664062 -8.90625 0.644531 -10.257812 1.34375 -11.625 C 2.050781 -12.988281 2.75 -14.207031 3.4375 -15.28125 C 6.164062 -19.71875 8.410156 -21.960938 10.171875 -22.015625 C 10.609375 -22.015625 11.140625 -21.828125 11.765625 -21.453125 C 12.398438 -21.085938 12.71875 -20.6875 12.71875 -20.25 C 12.71875 -20.25 10.867188 -17.863281 7.171875 -13.09375 C 3.515625 -8.363281 1.6875 -5 1.6875 -3 C 1.6875 -1.4375 2.296875 -0.65625 3.515625 -0.65625 C 4.296875 -0.65625 5.304688 -0.984375 6.546875 -1.640625 C 7.785156 -2.296875 9.085938 -3.132812 10.453125 -4.15625 C 11.816406 -5.1875 13.117188 -6.285156 14.359375 -7.453125 C 15.609375 -8.628906 16.625 -9.703125 17.40625 -10.671875 C 17.894531 -11.304688 18.320312 -11.742188 18.6875 -11.984375 C 19.050781 -12.234375 19.28125 -12.359375 19.375 -12.359375 C 19.570312 -12.359375 19.671875 -12.210938 19.671875 -11.921875 C 19.671875 -11.671875 19.390625 -11.179688 18.828125 -10.453125 C 18.265625 -9.722656 17.5 -8.867188 16.53125 -7.890625 C 15.351562 -6.722656 14.054688 -5.457031 12.640625 -4.09375 C 11.234375 -2.726562 9.703125 -1.570312 8.046875 -0.625 C 6.390625 0.320312 4.582031 0.796875 2.625 0.796875 Z M 2.625 0.796875 "/></g></g><g style="fill:#f4c5cc;fill-opacity:1;"><g transform="translate(317.170554, 344.802868)"><path style="stroke:none" d="M 14.921875 0.359375 C 12.816406 0.359375 11.375 -0.1875 10.59375 -1.28125 C 9.820312 -2.375 9.4375 -3.847656 9.4375 -5.703125 C 9.4375 -7.753906 10.066406 -10.191406 11.328125 -13.015625 C 11.816406 -14.140625 12.328125 -15.148438 12.859375 -16.046875 C 13.398438 -16.953125 13.960938 -17.796875 14.546875 -18.578125 C 14.359375 -18.523438 14.191406 -18.5 14.046875 -18.5 C 13.898438 -18.5 13.75 -18.5 13.59375 -18.5 C 12.425781 -18.5 11.453125 -19.328125 10.671875 -20.984375 L 5.265625 -13.96875 C 2.390625 -10.21875 0.632812 -8.34375 0 -8.34375 C -0.238281 -8.34375 -0.359375 -8.4375 -0.359375 -8.625 C -0.359375 -8.875 -0.238281 -9.191406 0 -9.578125 C 0.144531 -9.867188 0.4375 -10.257812 0.875 -10.75 C 2.726562 -12.894531 4.4375 -15.015625 6 -17.109375 C 7.5625 -19.203125 8.851562 -21.25 9.875 -23.25 C 10.988281 -27.488281 12.398438 -29.609375 14.109375 -29.609375 C 15.234375 -29.609375 15.796875 -29.097656 15.796875 -28.078125 C 15.796875 -27.148438 15.1875 -25.929688 13.96875 -24.421875 C 12.800781 -22.910156 12.21875 -22.128906 12.21875 -22.078125 C 12.21875 -21.054688 12.972656 -20.546875 14.484375 -20.546875 C 15.359375 -20.546875 16.332031 -20.863281 17.40625 -21.5 L 19.3125 -22.671875 C 19.40625 -22.710938 19.550781 -22.734375 19.75 -22.734375 C 20.332031 -22.734375 20.84375 -22.488281 21.28125 -22 C 21.71875 -21.519531 21.863281 -21.082031 21.71875 -20.6875 L 16.671875 -14.328125 C 13.554688 -10.335938 12 -7.125 12 -4.6875 C 12 -2.488281 13.066406 -1.390625 15.203125 -1.390625 C 16.671875 -1.390625 18.242188 -1.828125 19.921875 -2.703125 C 21.609375 -3.578125 23.242188 -4.660156 24.828125 -5.953125 C 26.410156 -7.242188 27.738281 -8.5 28.8125 -9.71875 L 30.5625 -11.765625 C 30.664062 -11.867188 30.789062 -11.992188 30.9375 -12.140625 C 31.082031 -12.285156 31.203125 -12.359375 31.296875 -12.359375 C 31.640625 -12.359375 31.8125 -12.1875 31.8125 -11.84375 C 31.8125 -11.75 31.757812 -11.578125 31.65625 -11.328125 C 31.5625 -11.085938 31.394531 -10.820312 31.15625 -10.53125 L 28.8125 -7.890625 C 27.6875 -6.628906 26.304688 -5.351562 24.671875 -4.0625 C 23.046875 -2.769531 21.363281 -1.707031 19.625 -0.875 C 17.894531 -0.0507812 16.328125 0.359375 14.921875 0.359375 Z M 14.921875 0.359375 "/></g></g><g style="fill:#f4c5cc;fill-opacity:1;"><g transform="translate(345.981831, 344.802868)"><path style="stroke:none" d="M 5.5625 0.140625 C 4.144531 0.140625 2.828125 -0.207031 1.609375 -0.90625 C 0.390625 -1.613281 -0.21875 -2.796875 -0.21875 -4.453125 C -0.21875 -6.742188 0.597656 -9.472656 2.234375 -12.640625 C 3.867188 -15.816406 5.734375 -19.109375 7.828125 -22.515625 C 13.523438 -31.785156 17.570312 -36.421875 19.96875 -36.421875 C 20.445312 -36.421875 20.941406 -36.234375 21.453125 -35.859375 C 21.972656 -35.492188 22.253906 -35.09375 22.296875 -34.65625 L 17.1875 -27.78125 C 15.1875 -25.101562 13.378906 -22.628906 11.765625 -20.359375 C 10.160156 -18.097656 8.773438 -16.066406 7.609375 -14.265625 C 7.023438 -13.335938 6.363281 -12.285156 5.625 -11.109375 C 4.894531 -9.941406 4.25 -8.734375 3.6875 -7.484375 C 3.132812 -6.242188 2.859375 -4.992188 2.859375 -3.734375 C 2.859375 -3.148438 3.023438 -2.625 3.359375 -2.15625 C 3.703125 -1.695312 4.3125 -1.46875 5.1875 -1.46875 C 6.75 -1.46875 8.796875 -2.304688 11.328125 -3.984375 C 13.867188 -5.671875 16.378906 -8 18.859375 -10.96875 C 19.109375 -11.257812 19.378906 -11.523438 19.671875 -11.765625 C 19.960938 -12.015625 20.207031 -12.140625 20.40625 -12.140625 C 20.644531 -12.140625 20.765625 -11.992188 20.765625 -11.703125 C 20.765625 -11.554688 20.601562 -11.273438 20.28125 -10.859375 C 19.96875 -10.441406 19.71875 -10.113281 19.53125 -9.875 L 17.765625 -7.890625 C 16.796875 -6.816406 15.640625 -5.644531 14.296875 -4.375 C 12.953125 -3.113281 11.535156 -2.046875 10.046875 -1.171875 C 8.566406 -0.296875 7.070312 0.140625 5.5625 0.140625 Z M 5.5625 0.140625 "/></g></g></g></svg>