<svg xmlns="http://www.w3.org/2000/svg" xmlns:xlink="http://www.w3.org/1999/xlink" width="500" zoomAndPan="magnify" viewBox="0 0 375 374.999991" height="500" preserveAspectRatio="xMidYMid meet" version="1.2"><defs><clipPath id="7aa190854f"><path d="M 25.3125 0 L 349 0 L 349 374 L 25.3125 374 Z M 25.3125 0 "/></clipPath></defs><g id="7765545e9c"><g clip-rule="nonzero" clip-path="url(#7aa190854f)"><path style=" stroke:none;fill-rule:nonzero;fill:#f4c5cc;fill-opacity:1;" d="M 93.832031 85.644531 L 94.078125 83.519531 C 94.347656 78.136719 91.605469 72.484375 87.953125 68.605469 C 79.929688 60.105469 68.460938 56.496094 56.929688 56.023438 C 46.019531 56.3125 35.683594 59.015625 26.257812 64.5 C 45.648438 62.953125 51.898438 85.519531 66.730469 92.820312 C 72.152344 95.503906 78.320312 96.390625 84.160156 94.472656 C 86.921875 93.5625 89.046875 91.933594 90.347656 89.398438 L 90.429688 88.632812 C 89.769531 87.726562 87.933594 87.046875 86.882812 86.53125 C 79.929688 83.148438 72.378906 80.835938 65.179688 77.929688 L 65.179688 77.765625 C 74.671875 80.320312 84.695312 82.054688 93.832031 85.644531 Z M 27.476562 101.421875 C 25.308594 108.4375 25.390625 116.933594 25.328125 123.328125 C 25.226562 134.136719 26.257812 144.863281 29.371094 155.28125 C 35.707031 176.546875 50.019531 195.730469 69.472656 207.652344 C 71.886719 209.136719 74.382812 210.539062 76.9375 211.757812 C 78.011719 212.273438 81.519531 213.160156 81.890625 214.4375 C 82.324219 215.863281 79.558594 218.976562 78.941406 220.277344 C 77.597656 223.082031 76.464844 225.988281 75.433594 228.941406 C 71.761719 239.582031 69.925781 250.804688 70.277344 262.046875 C 70.9375 283.269531 79.683594 303.054688 93.914062 319.101562 C 101.300781 327.433594 109.964844 334.734375 119.453125 340.800781 C 125.226562 344.492188 131.3125 347.691406 137.644531 350.414062 C 140.820312 351.773438 144.078125 352.992188 147.320312 354.25 C 150.101562 355.320312 153.546875 357.28125 156.601562 357.238281 C 155.652344 355.796875 153.238281 355.054688 151.710938 354.230469 C 149.8125 353.175781 147.980469 352 146.203125 350.761719 C 142.265625 348.019531 138.53125 345.007812 135.085938 341.730469 C 129.0625 336.015625 123.84375 329.433594 120.171875 322.089844 C 112.355469 306.476562 112.789062 288.058594 121.988281 273.082031 C 130.175781 259.734375 143.667969 250.679688 155.199219 240.242188 C 167.53125 229.085938 178.339844 216.152344 185.148438 201.132812 C 189.4375 191.667969 192.347656 181.621094 194.039062 171.453125 C 194.84375 166.542969 195.359375 161.59375 195.605469 156.640625 C 195.710938 154.289062 195.792969 151.917969 195.769531 149.546875 C 195.75 147.070312 195.050781 144.183594 195.75 141.769531 C 196.945312 143.730469 197.03125 146.660156 197.402344 148.867188 C 197.773438 151.074219 198.226562 153.300781 198.578125 155.507812 C 199.402344 160.765625 199.710938 166.070312 199.566406 171.390625 C 199.296875 181.539062 197.378906 191.625 193.957031 201.238281 C 187.480469 219.390625 175.597656 234.570312 160.953125 247.402344 C 147.667969 259.035156 130.671875 268.335938 124.957031 285.789062 C 122.152344 294.390625 122.214844 303.980469 126.074219 312.273438 C 129.929688 320.566406 136.675781 326.320312 144.472656 330.488281 C 162.644531 340.160156 183.375 338.632812 203.382812 338.488281 C 223.390625 338.347656 244.617188 342.121094 259.445312 356.496094 C 262.6875 359.632812 265.511719 363.117188 267.964844 366.851562 C 269.140625 368.648438 270.007812 370.503906 271.039062 372.359375 C 272.484375 374.980469 273.742188 373.328125 275.289062 371.597656 C 282.074219 364.003906 288.882812 356.457031 295.089844 348.410156 C 307.300781 332.589844 317.492188 314.914062 321.144531 295.316406 C 323.144531 284.613281 323.144531 273.433594 320.089844 262.914062 C 317.039062 252.394531 311.015625 244.121094 303.570312 236.511719 C 296.121094 228.898438 287.398438 222.089844 279.433594 214.75 C 275.390625 211.015625 271.492188 207.136719 268.027344 202.910156 C 266.542969 201.113281 265.078125 199.277344 263.695312 197.421875 C 262.417969 195.730469 260.085938 193.070312 260.148438 190.863281 C 262.191406 192.429688 263.511719 195.070312 265.160156 197.007812 C 267.304688 199.546875 269.71875 201.878906 272.234375 204.0625 C 277.105469 208.292969 282.488281 211.964844 287.871094 215.53125 C 298.410156 222.523438 309.015625 229.601562 317.761719 238.71875 C 325.679688 246.988281 331.828125 256.890625 334.507812 267.925781 C 337.4375 279.992188 336.40625 292.882812 331.972656 304.496094 C 329.640625 310.601562 326.402344 316.378906 322.464844 321.679688 C 320.253906 324.648438 317.84375 327.515625 315.179688 330.117188 C 313.058594 332.199219 309.324219 334.035156 307.960938 336.632812 C 310.664062 336.550781 313.945312 333.519531 316.089844 332.09375 C 319.367188 329.910156 322.523438 327.558594 325.453125 324.9375 C 330.671875 320.277344 335.25 314.894531 338.839844 308.972656 C 346.390625 296.597656 349.566406 281.910156 348.351562 267.636719 C 347.132812 253.363281 341.460938 239.75 331.890625 228.878906 C 322.320312 218.007812 309.550781 210.3125 296.824219 203.257812 C 289.128906 198.988281 281.230469 194.945312 274.09375 189.808594 C 270.976562 187.5625 268.007812 185.105469 265.347656 182.363281 C 264.003906 180.960938 262.746094 179.476562 261.53125 177.992188 C 260.789062 177.082031 258.765625 175.246094 259.136719 173.988281 C 261.136719 173.699219 263.65625 174.957031 265.554688 175.472656 C 267.347656 175.96875 269.164062 176.238281 271.019531 176.339844 C 274.980469 176.566406 279.25 176.339844 282.941406 174.8125 C 286.035156 173.535156 288.46875 171.328125 289.75 168.296875 C 290.46875 166.585938 290.800781 164.726562 290.820312 162.871094 C 290.863281 160.5625 290.140625 158.128906 290.820312 155.835938 C 291.75 152.785156 295.523438 150.722656 294.84375 147.175781 C 294.617188 145.914062 293.132812 145.316406 292.90625 144.347656 C 292.617188 143.132812 295.277344 141.480469 295.9375 140.449219 C 296.742188 139.210938 297.296875 137.6875 296.574219 136.28125 C 296.039062 135.230469 294.84375 134.714844 294.101562 133.828125 C 292.222656 131.519531 294.347656 129.578125 296.328125 128.195312 C 298.308594 126.816406 300.515625 125.761719 302.226562 124.011719 C 303.320312 122.894531 304.433594 121.574219 304.683594 120.027344 C 305.03125 117.84375 303.589844 116.644531 302.105469 115.265625 C 299.875 113.160156 297.605469 110.726562 295.769531 108.269531 C 294.800781 106.972656 295.007812 106.230469 295.628906 104.804688 C 296.636719 102.453125 297.667969 100.125 298.660156 97.75 C 301.980469 89.726562 304.929688 81.375 304.910156 72.628906 C 304.910156 64.355469 302.597656 56.207031 298.867188 48.804688 C 291.957031 35.128906 280.199219 23.925781 267.039062 15.738281 C 252.992188 6.929688 235.746094 0.761719 218.894531 0.246094 C 210.972656 0 202.621094 1.011719 194.800781 2.289062 C 187.480469 3.484375 180.28125 5.320312 173.351562 7.878906 C 159.074219 13.179688 146.164062 21.679688 136.386719 33.066406 C 124.441406 46.988281 117.71875 64.542969 115.179688 82.28125 C 113.695312 92.554688 113.945312 102.929688 113.203125 113.242188 C 112.871094 117.761719 112.171875 122.175781 111.097656 126.589844 C 110.582031 128.753906 109.53125 134.960938 106.867188 135.707031 C 106.230469 133.890625 107.382812 131.351562 107.695312 129.539062 C 108.167969 126.753906 108.355469 123.925781 108.332031 121.121094 C 108.292969 115.820312 107.613281 110.4375 106.125 105.320312 C 105.054688 101.628906 103.464844 97.957031 101.132812 94.824219 C 99.382812 92.472656 95.566406 88.40625 92.140625 88.738281 C 92.78125 89.953125 94.429688 90.636719 95.441406 91.585938 C 96.679688 92.71875 97.648438 94.140625 98.535156 95.542969 C 100.785156 99.09375 102.351562 103.03125 103.339844 107.074219 C 105.40625 115.511719 104.785156 123.867188 103.257812 132.324219 C 102.847656 134.589844 103.15625 137.625 100.390625 138.203125 C 96.453125 139.046875 91.832031 138.675781 87.871094 138.160156 C 83.664062 137.601562 79.496094 136.53125 75.578125 134.941406 C 73.84375 134.242188 72.089844 133.476562 70.484375 132.527344 C 69.019531 131.683594 67.511719 129.992188 65.820312 129.683594 C 66.585938 132.324219 69.84375 134.757812 72.03125 136.367188 C 74.792969 138.386719 77.847656 140.039062 81.042969 141.296875 C 88.632812 144.285156 97.070312 144.824219 105.15625 144.121094 C 121.597656 142.675781 137.3125 136.117188 151.773438 128.796875 C 181.539062 113.695312 207.117188 92.53125 232.589844 71.660156 C 239.769531 65.757812 246.886719 60.003906 252.949219 52.992188 C 255.835938 49.648438 258.539062 46.144531 260.601562 42.265625 C 261.53125 40.492188 262.375 38.65625 262.808594 36.714844 C 263.285156 34.589844 262.707031 32.632812 263.015625 30.546875 C 264.769531 34.363281 263.449219 39.460938 262.003906 43.171875 C 260.273438 47.648438 257.589844 51.753906 254.785156 55.671875 C 248.636719 64.210938 241.253906 71.679688 233.5 78.878906 C 217.078125 94.101562 200.351562 109.242188 181.703125 121.945312 C 164.210938 133.847656 144.988281 143.769531 124.238281 149.195312 C 104.804688 154.269531 83.1875 155.402344 64.808594 146.347656 C 55.054688 141.542969 46.617188 134.136719 40.945312 125.082031 C 37.914062 120.277344 35.664062 115.015625 34.199219 109.589844 C 33.476562 106.890625 32.941406 104.125 32.589844 101.363281 C 32.261719 98.679688 32.507812 96 31.664062 93.503906 C 29.722656 95.6875 28.402344 98.410156 27.476562 101.402344 Z M 205.261719 11.46875 C 200.164062 12.066406 195.277344 12.933594 190.386719 14.519531 C 178.195312 18.503906 167.183594 26.589844 159.28125 36.40625 C 144.90625 54.269531 138.738281 77.578125 141.5 100.0625 C 142.492188 108.167969 144.65625 115.800781 147.050781 123.578125 C 143.171875 117.304688 139.832031 110.644531 137.542969 103.652344 C 134.550781 94.535156 133.5 84.425781 133.953125 74.875 L 134.46875 69.410156 C 134.589844 68.460938 135.046875 67.058594 134.941406 66.171875 C 132.570312 69.59375 130.816406 73.453125 129.230469 77.269531 C 126.609375 83.519531 124.402344 90.140625 123.019531 96.761719 C 122.320312 100.0625 121.925781 103.382812 121.472656 106.722656 C 120.832031 105.300781 121.289062 102.019531 121.328125 100.414062 C 121.761719 86.34375 124.753906 72.691406 130.074219 59.589844 C 131.867188 55.199219 133.871094 50.929688 136.425781 46.886719 C 144.78125 33.746094 157.46875 23.636719 171.96875 17.511719 C 182.324219 13.140625 193.957031 10.582031 205.238281 11.46875 Z M 205.546875 199.773438 C 206.148438 198.289062 206.703125 196.78125 207.238281 195.296875 C 211.40625 183.683594 213.117188 171.761719 212.128906 159.488281 C 211.613281 153.238281 210.457031 147.089844 209.613281 140.902344 C 209.21875 137.996094 208.890625 135.066406 208.746094 132.136719 C 208.601562 129.207031 208.167969 125.433594 209.074219 122.585938 C 209.777344 123.121094 210.148438 124.792969 210.5 125.597656 C 210.953125 126.628906 211.386719 127.660156 211.941406 128.652344 C 213.058594 130.691406 214.5625 132.527344 216.707031 133.644531 C 221.96875 136.40625 228.300781 134.28125 232.425781 130.609375 C 236.550781 126.9375 238.695312 120.9375 236.839844 115.554688 C 236.015625 113.140625 234.425781 110.933594 231.992188 109.820312 C 230.445312 109.097656 226.773438 108.25 225.886719 110.3125 C 227.640625 110.5625 228.980469 110.230469 230.546875 111.28125 C 231.867188 112.171875 232.777344 113.59375 233.128906 115.097656 C 233.890625 118.480469 231.867188 121.863281 228.710938 123.308594 C 225.558594 124.753906 221.71875 124.359375 219.328125 121.886719 C 216.933594 119.410156 216.894531 116.007812 217.449219 112.996094 C 218.253906 108.828125 220.585938 104.992188 223 101.503906 C 225.785156 97.503906 228.878906 93.667969 232.117188 89.996094 C 238.738281 82.445312 246.019531 75.496094 252.867188 68.152344 C 256.703125 64.027344 260.457031 59.796875 263.882812 55.34375 C 265.449219 53.300781 266.933594 51.195312 268.253906 48.988281 C 270.730469 44.824219 271.121094 39.894531 275.0625 46.101562 C 276.21875 47.917969 277.453125 49.671875 278.589844 51.484375 C 281.125 55.546875 283.457031 59.839844 284.960938 64.355469 C 286.46875 68.875 286.570312 73.164062 285.910156 77.742188 C 285.25 82.324219 284.117188 86.511719 283.992188 90.964844 C 283.871094 95.730469 285.3125 100.0625 287.582031 104.25 C 289.851562 108.4375 292.367188 112.4375 295.628906 115.925781 C 296.574219 116.957031 298.597656 118.109375 298.949219 119.472656 C 299.359375 121.121094 297.296875 122.484375 296.039062 123.164062 C 294.453125 124.03125 287.398438 125.414062 287.542969 127.785156 C 288.820312 127.992188 290.078125 127.496094 291.335938 127.765625 C 290.925781 128.628906 290.078125 129.0625 289.851562 130.054688 C 289.582031 131.1875 290.078125 132.097656 290.675781 133.023438 C 291.273438 133.953125 291.625 134.46875 290.554688 135.167969 C 289.5625 135.851562 288.347656 136.160156 287.335938 136.839844 C 285.191406 138.285156 283.4375 140.203125 281.167969 141.523438 C 280.011719 142.183594 278.878906 142.59375 277.558594 142.761719 C 276.589844 142.882812 274.8125 142.761719 274.132812 143.542969 C 274.421875 145.234375 277.515625 146.863281 278.816406 147.8125 C 280.464844 149.03125 282.035156 150.351562 283.871094 151.300781 C 284.488281 151.628906 285.746094 151.878906 286.222656 152.414062 C 287.148438 153.464844 286.367188 153.773438 285.789062 154.785156 C 284.734375 156.621094 284.921875 158.703125 285.046875 160.726562 C 285.335938 165.097656 283.953125 168.398438 279.433594 169.945312 C 275.308594 171.347656 270.628906 170.792969 266.441406 169.882812 C 256.1875 167.636719 245.667969 164.109375 236.34375 159.425781 C 232.15625 157.324219 228.113281 154.886719 224.503906 151.960938 C 222.75 150.535156 221.183594 148.90625 219.71875 147.214844 C 218.253906 145.523438 216.75 143.027344 214.832031 141.6875 C 214.769531 143.441406 216.398438 145.75 217.285156 147.214844 C 218.421875 149.070312 219.617188 150.929688 220.832031 152.722656 C 223.496094 156.683594 226.609375 160.335938 230.03125 163.71875 C 231.601562 165.265625 233.230469 166.730469 234.960938 168.089844 C 235.539062 168.542969 237.398438 169.367188 237.6875 170.113281 C 238.015625 171 237.109375 172.089844 236.695312 172.8125 C 234.445312 176.710938 232.984375 180.960938 231.746094 185.25 C 228.941406 194.925781 227.640625 204.847656 228.425781 214.894531 C 229.0625 223.207031 230.960938 232.671875 238.015625 238.222656 C 244.308594 243.171875 252.886719 244.183594 260.066406 247.460938 C 267.246094 250.742188 273.679688 255.546875 278.796875 261.449219 C 290.554688 275.042969 294.039062 293.253906 292.882812 310.539062 C 292.160156 321.429688 289.644531 332.179688 285.996094 342.511719 C 284.160156 347.691406 282.035156 352.765625 279.804688 357.796875 C 278.753906 360.191406 277.640625 362.5625 276.648438 364.976562 C 275.847656 366.933594 275.0625 370.253906 273.246094 371.617188 C 272.277344 370.894531 272.875 367.902344 272.917969 366.851562 C 273.019531 364.460938 272.710938 362.085938 272.320312 359.734375 C 271.472656 354.703125 269.96875 349.753906 267.863281 345.070312 C 263.984375 336.34375 258.085938 328.609375 250.847656 322.175781 C 235.230469 308.292969 214.851562 300.496094 197.007812 289.75 C 188.285156 284.488281 180.753906 278.074219 175.269531 269.59375 C 172.566406 265.429688 170.605469 260.953125 168.914062 256.351562 C 168.359375 254.847656 166.871094 252.289062 167.761719 250.703125 C 168.152344 250 169.019531 249.484375 169.617188 248.988281 C 170.75 248.082031 171.863281 247.132812 172.980469 246.183594 C 187.398438 233.746094 198.515625 217.140625 205.507812 199.691406 Z M 265.59375 72.339844 C 267.347656 72.359375 269.121094 72.667969 270.832031 73.039062 C 272.195312 73.328125 273.554688 73.699219 274.875 74.175781 C 275.988281 74.566406 277.164062 75.019531 278.15625 75.679688 C 279.886719 76.816406 280.382812 79.0625 280.527344 80.960938 C 280.570312 81.496094 280.777344 83.582031 279.785156 83.355469 C 279.457031 83.269531 279.085938 82.941406 278.816406 82.753906 C 278.382812 82.445312 277.949219 82.179688 277.496094 81.890625 C 275.207031 80.464844 272.855469 79.1875 270.296875 78.238281 C 267.738281 77.289062 265.265625 76.710938 262.625 76.445312 C 261.820312 76.363281 260.996094 76.445312 260.191406 76.484375 C 259.386719 76.527344 258.621094 76.628906 257.859375 76.753906 C 256.394531 77.019531 254.949219 77.414062 253.527344 77.886719 C 252.105469 78.363281 250.824219 78.898438 249.503906 79.496094 C 248.824219 79.804688 248.144531 80.136719 247.460938 80.488281 C 247.152344 80.652344 246.84375 80.796875 246.535156 80.960938 C 246.203125 81.148438 245.855469 81.375 245.484375 81.519531 C 245.914062 81.003906 246.554688 80.570312 247.070312 80.15625 C 249.8125 77.992188 252.949219 76.238281 256.148438 74.773438 C 258.558594 73.660156 261.097656 72.75 263.777344 72.460938 C 264.378906 72.402344 264.953125 72.378906 265.554688 72.378906 Z M 261.984375 88.964844 C 263.222656 88.777344 264.480469 88.757812 265.757812 88.777344 C 265.429688 88.863281 265.121094 89.046875 264.808594 89.171875 L 262.789062 90.015625 C 261.777344 90.449219 260.765625 90.882812 259.757812 91.296875 C 257.960938 92.121094 256.1875 93.070312 254.371094 93.914062 C 253.445312 94.347656 252.496094 94.761719 251.546875 95.113281 C 250.597656 95.460938 249.585938 95.730469 248.597656 96.019531 C 248.867188 96.101562 249.132812 96.308594 249.359375 96.453125 L 250.886719 97.320312 C 251.671875 97.773438 252.453125 98.207031 253.238281 98.660156 C 255.835938 100.226562 258.375 101.9375 261.28125 102.949219 C 262.808594 103.484375 264.378906 103.710938 265.984375 103.855469 C 266.769531 103.917969 267.554688 103.980469 268.335938 104.105469 C 268.730469 104.167969 269.121094 104.25 269.511719 104.351562 C 269.71875 104.394531 269.90625 104.457031 270.113281 104.515625 C 270.339844 104.578125 270.566406 104.722656 270.792969 104.746094 C 270.894531 104.515625 270.648438 103.980469 270.566406 103.753906 C 270.441406 103.425781 270.234375 103.09375 270.132812 102.742188 C 270.027344 102.394531 270.171875 101.960938 270.253906 101.609375 C 270.339844 101.15625 270.441406 100.722656 270.542969 100.269531 C 270.730469 99.484375 270.914062 98.722656 271.058594 97.9375 C 271.121094 97.605469 271.183594 97.296875 271.289062 96.96875 C 271.328125 96.804688 271.390625 96.636719 271.472656 96.492188 C 271.574219 96.308594 271.617188 96.246094 271.84375 96.246094 C 272.484375 96.203125 273.101562 96.203125 273.722656 95.976562 C 274.339844 95.75 274.917969 95.378906 275.453125 94.945312 C 276.484375 94.101562 277.332031 93.070312 277.910156 91.871094 C 278.546875 90.59375 278.917969 89.171875 279.105469 87.769531 C 278.878906 88.179688 278.589844 88.574219 278.320312 88.984375 C 278.054688 89.398438 277.785156 89.832031 277.496094 90.242188 C 276.980469 90.964844 276.277344 91.585938 275.414062 91.894531 C 274.957031 92.039062 274.464844 92.140625 273.988281 92.101562 C 273.761719 92.101562 273.515625 92.039062 273.308594 91.957031 C 273 91.832031 272.648438 91.726562 272.730469 91.355469 C 272.855469 90.820312 273.164062 90.324219 273.410156 89.832031 C 273.535156 89.582031 273.636719 89.355469 273.761719 89.109375 C 273.824219 88.964844 274.132812 88.429688 273.988281 88.304688 C 273.804688 88.140625 273.328125 88.53125 273.207031 88.613281 C 272.894531 88.839844 272.546875 89.027344 272.152344 88.964844 C 271.082031 88.800781 270.195312 87.933594 269.222656 87.5 C 268.070312 86.984375 266.667969 86.820312 265.386719 86.839844 C 262.601562 86.882812 259.921875 87.914062 257.40625 88.984375 C 254.828125 90.160156 252.25 91.335938 249.671875 92.492188 C 249.296875 92.65625 248.84375 92.78125 248.617188 93.109375 C 248.804688 93.191406 248.90625 93.109375 249.09375 93.027344 C 249.464844 92.902344 249.835938 92.78125 250.207031 92.636719 C 250.90625 92.386719 251.609375 92.140625 252.289062 91.894531 C 253.773438 91.355469 255.28125 90.800781 256.785156 90.304688 C 258.292969 89.808594 259.714844 89.398438 261.222656 89.109375 C 261.488281 89.046875 261.757812 89.003906 262.027344 88.964844 Z M 262.292969 101.445312 C 261.964844 101.421875 261.570312 101.195312 261.28125 101.074219 C 260.972656 100.949219 260.644531 100.804688 260.335938 100.660156 C 259.695312 100.371094 259.136719 100.019531 258.582031 99.609375 C 258.085938 99.238281 257.589844 98.867188 257.15625 98.433594 C 256.929688 98.226562 256.746094 97.980469 256.558594 97.75 C 256.476562 97.648438 256.292969 97.441406 256.269531 97.320312 C 256.269531 96.84375 258.085938 96.101562 258.457031 95.9375 C 258.746094 95.8125 259.035156 95.6875 259.34375 95.566406 C 259.652344 95.441406 260.128906 95.195312 260.4375 95.214844 C 260.582031 95.421875 260.539062 95.855469 260.5625 96.121094 C 260.582031 96.390625 260.621094 96.660156 260.644531 96.925781 C 260.707031 97.441406 260.789062 97.980469 260.910156 98.496094 C 261.035156 98.988281 261.179688 99.464844 261.40625 99.917969 C 261.53125 100.1875 261.65625 100.433594 261.820312 100.703125 C 261.984375 100.96875 262.230469 101.195312 262.3125 101.464844 Z M 266.832031 99.421875 C 267.039062 99.503906 267.140625 99.835938 267.160156 100.019531 C 267.222656 100.515625 267.058594 100.988281 266.644531 101.320312 C 266.234375 101.648438 265.675781 101.734375 265.203125 101.566406 C 264.664062 101.382812 264.234375 100.824219 263.921875 100.390625 C 263.53125 99.835938 263.261719 99.175781 263.117188 98.515625 C 262.953125 97.792969 262.914062 97.007812 262.996094 96.289062 C 263.058594 95.667969 263.222656 94.679688 263.921875 94.453125 C 264.046875 94.761719 263.984375 95.089844 263.984375 95.421875 C 263.984375 95.75 263.984375 96.101562 264.003906 96.429688 C 264.046875 97.050781 264.191406 97.667969 264.460938 98.246094 C 264.605469 98.535156 264.789062 98.804688 264.996094 99.050781 C 265.222656 99.320312 265.574219 99.421875 265.925781 99.464844 C 266.070312 99.464844 266.234375 99.464844 266.378906 99.464844 C 266.5 99.464844 266.707031 99.359375 266.832031 99.421875 Z M 266.832031 99.421875 "/></g></g></svg>