<svg xmlns="http://www.w3.org/2000/svg" xmlns:xlink="http://www.w3.org/1999/xlink" width="500" zoomAndPan="magnify" viewBox="0 0 375 374.999991" height="500" preserveAspectRatio="xMidYMid meet" version="1.2"><defs><clipPath id="dca96af2f7"><path d="M 111 53.757812 L 375 53.757812 L 375 321.507812 L 111 321.507812 Z M 111 53.757812 "/></clipPath></defs><g id="3d075cb00d"><path style=" stroke:none;fill-rule:nonzero;fill:#f6be31;fill-opacity:1;" d="M -1.480469 318.027344 L 28.242188 299.105469 C 28.605469 298.867188 62.609375 277.222656 90.488281 260.171875 C 113.652344 269.898438 140.03125 275.015625 167.070312 275.015625 C 250.683594 275.015625 318.699219 226.078125 318.699219 165.953125 C 318.699219 105.804688 250.683594 56.882812 167.070312 56.882812 C 83.480469 56.882812 15.46875 105.804688 15.46875 165.953125 C 15.46875 190.996094 27.253906 215.042969 48.789062 234.328125 L -1.480469 318.027344 "/><g clip-rule="nonzero" clip-path="url(#dca96af2f7)"><path style=" stroke:none;fill-rule:nonzero;fill:#38b6ff;fill-opacity:1;" d="M 111.066406 185.414062 C 111.066406 258.128906 170.003906 317.070312 242.722656 317.070312 C 268.707031 317.070312 292.929688 309.535156 313.339844 296.550781 L 356.707031 313.472656 L 376.40625 321.164062 L 372.875 312.125 L 352.0625 258.78125 C 366.160156 237.820312 374.390625 212.570312 374.390625 185.414062 C 374.390625 112.691406 315.441406 53.742188 242.722656 53.742188 C 170.003906 53.742188 111.066406 112.691406 111.066406 185.414062 "/></g><path style=" stroke:none;fill-rule:nonzero;fill:#ffffff;fill-opacity:1;" d="M 206.167969 187.453125 C 206.167969 191.867188 202.589844 195.445312 198.171875 195.445312 C 193.761719 195.445312 190.183594 191.867188 190.183594 187.453125 C 190.183594 183.039062 193.761719 179.460938 198.171875 179.460938 C 202.589844 179.460938 206.167969 183.039062 206.167969 187.453125 "/><path style=" stroke:none;fill-rule:nonzero;fill:#ffffff;fill-opacity:1;" d="M 251.730469 187.453125 C 251.730469 191.867188 248.152344 195.445312 243.738281 195.445312 C 239.320312 195.445312 235.742188 191.867188 235.742188 187.453125 C 235.742188 183.039062 239.320312 179.460938 243.738281 179.460938 C 248.152344 179.460938 251.730469 183.039062 251.730469 187.453125 "/><path style=" stroke:none;fill-rule:nonzero;fill:#ffffff;fill-opacity:1;" d="M 297.292969 187.453125 C 297.292969 191.867188 293.714844 195.445312 289.300781 195.445312 C 284.882812 195.445312 281.304688 191.867188 281.304688 187.453125 C 281.304688 183.039062 284.882812 179.460938 289.300781 179.460938 C 293.714844 179.460938 297.292969 183.039062 297.292969 187.453125 "/></g></svg>